<?xml version="1.0" encoding="utf-8"?>
<!-- Generator: Adobe Illustrator 22.0.0, SVG Export Plug-In . SVG Version: 6.00 Build 0)  -->
<svg version="1.1" id="Livello_1" xmlns="http://www.w3.org/2000/svg" xmlns:xlink="http://www.w3.org/1999/xlink" x="0px" y="0px"
	 viewBox="0 0 2466.1 2466.1" style="enable-background:new 0 0 2466.1 2466.1;" xml:space="preserve">
<style type="text/css">
	.st0{fill:#FFFFFF;}
</style>
<g>
	<path class="st0" d="M1259,1151.7c-1.8-21.8-1.5-38.5-13-52.5c-10-12.1-23-17-37.3-10.8c-8.6,3.7-16,10.3-15.2,20.1
		c2.5,32.8,4.5,65.7,7.8,98.4c1.6,15.8,5.3,31.4,8.6,47c1.4,6.5,3.8,6.9,9,2.9c1.7-1.3,3.6-2.8,5.6-3.1c7.9-1.2,10.4-7.1,12.2-13.5
		c5.2-18.4,10.4-36.8,15.1-55.3C1255,1172.4,1257.3,1159.6,1259,1151.7z M1123.9,1233.9c-0.3-0.9-0.6-1.4-0.7-2
		c-5.1-27.4-9.8-55-15.4-82.3c-2.9-13.9-7.2-27.6-11.1-41.3c-0.5-1.6-2.6-3.5-4.1-3.6c-1.2-0.1-3.6,2.4-3.6,3.7
		c-0.1,5.5-0.3,11.3,1.1,16.5c2.3,8.2,7.3,15.9,8.7,24.2c4.7,27.3,8,54.9,12.5,82.3c2.5,15.2,6,30.2,10,45.1c0.8,3,5.8,4.9,8.8,7.3
		c2.1-2.7,5.5-5.3,5.9-8.2c2.7-19.9,5.4-39.8,6.7-59.9c2.1-31.4,3.5-62.8,4.5-94.2c0.3-10-1.2-20.2-2.4-30.2
		c-0.5-4.3-5.8-7.4-8.2-5.1c-2.3,2.2-4.2,5.8-4.4,8.9c-1.7,21.7-3,43.4-4.2,65.2C1126.5,1184.5,1125.2,1208.9,1123.9,1233.9z
		 M926.7,1191.3c0.4,25.1,4.3,45,12.2,64.1c1.8,4.3,1.9,9.4,4.2,13.2c6.3,10.7,11.6,22.3,26.3,25c4.8,0.9,9,2.2,13.1-0.3
		c5.3-3.2,10.7-6.5,15.3-10.6c10.7-9.4,14.6-21.9,14.4-35.7c0-2.4-2.5-4.8-3.8-7.2c-2.1,2.5-4.6,4.8-6.1,7.6
		c-0.8,1.5,0.5,3.9,0.2,5.9c-0.6,4.7-1,9.6-2.5,14.1c-1,3.2-3.7,4.9-6.8,1.2c-3.3-4.1-6.3-3.5-8.2,1.1c-1.9,4.5-5,5-8.9,3.2
		c-2.5-1.2-5.5-2.3-7.2-4.3c-5.5-6.4-10.4-13.4-15.9-19.9c-8-9.5-10.1-21.2-12.2-32.7c-3.3-18.5-2.5-36.9,1.9-55.4
		c3.6-15.3,11.6-27.3,23.6-37c4.2-3.4,10.2-2.9,14,0.8c3.4,3.3,7.6,6.1,10,10.1c2.8,4.5,8.2,7.7,7.5,14.5c-0.2,2,3.9,4.6,6,6.8
		c2.1-2,5-3.7,6-6.1c6.2-14.5-4.3-30.9-13-38.4c-8.3-7.2-18.2-8-28.4-4c-5,2-10.9,3.2-14.7,6.6c-14.1,12.6-20.3,30-24.2,47.7
		C927.2,1172.5,927.4,1184.2,926.7,1191.3z M1088.3,1190.3c-0.6-4.3-0.6-10.8-2.6-16.7c-3.6-10.4-8.5-20.4-12.7-30.6
		c-3.4-8.1-5.6-16.9-10.2-24.3c-8.9-14.3-22.2-14.7-31.4-1.1c-8.1,11.8-9.5,25.7-9.1,39.7c0.4,13.5,0.8,27,2.3,40.3
		c1.4,12.2,4.8,24.1,6.5,36.2c1.4,9.7,8,18.6,4.6,29.1c-0.4,1.3,1.1,3.9,2.5,4.9c6.4,5,22.8,2.4,27.1-4.3
		c4.2-6.7,8.3-13.5,11.9-20.5C1085.1,1227.1,1088.1,1210,1088.3,1190.3z M1357.5,1136.2c0,7.7,0,14,0,20.2
		c-0.2,24.7-3.1,48.9-16.3,70.5c-1.7,2.8-5.9,5.7-8.9,5.7c-2.1,0-5.2-4.8-5.9-7.9c-1.3-5.4-0.9-11.2-1.9-16.7
		c-0.4-2.2-2.8-4.1-4.3-6.1c-1.4,2.1-3.7,4.2-4.1,6.5c-1.9,11.9,2.5,22.2,8.8,31.9c7.6,11.5,13.8,9.5,21.9,0.1
		c8.9-10.2,10-23.5,12.1-35.8c3.7-21.6,5.3-43.5,8.6-65.2c2.4-15.8,3.7-31.5,0.8-47.2c-1.6-8.7-1.6-18.3-11.8-23.6
		c-5.9-3.1-12-2.9-16.4-0.9c-10.1,4.7-16.2,14.4-18.8,24.8c-3.6,14.2-2.2,28.4,7.3,40.7c1.9,2.5,3.6,5.2,5,8
		c2.9,5.8,8.1,7.7,13.5,4.1C1350.3,1143.2,1353,1140.2,1357.5,1136.2z M1372.5,1208.3c0.6,0.2,1.2,0.4,1.8,0.7
		c0.1,7.4,6.8,15.1,13,14.1c5.6-0.9,11-2.5,14.3-8c2.9-4.7,6.5-8.9,9.1-13.7c9.6-17.2,11.7-34.6,1.9-52.7c-1.6-3-1.8-7.4-1.1-10.9
		c2-9.9,5.1-19.6,7.1-29.5c1.6-8.1,2.9-16.4,3-24.7c0.1-9.1-4.8-13-13.9-13c-9.3,0-12.3,7.9-16,14c-11.8,19.8-6.3,38.6,4.4,56.9
		c0.8,1.4,1.7,3.6,1.2,4.8c-3.8,9.2-8.2,18.1-11.9,27.3C1380.9,1185.1,1376.8,1196.8,1372.5,1208.3z M1306.8,1058
		c-1.7,0.6-4.5,0.7-5.2,2c-2.6,4.4-5,9-6.6,13.8c-5.9,17.4-11.7,34.9-17.2,52.5c-2.1,6.8-3.4,13.8-4.8,20.8c-0.2,1.1,1,2.5,1.6,3.8
		c0.9-0.5,2.3-0.8,2.7-1.6c3.4-7.5,7.1-14.9,9.8-22.7c3-8.4,5.2-17.2,7.8-25.8c0.5-1.5,1.3-2.9,2-4.4c1.1,1.2,1.1,2,1.1,2.8
		c-0.9,17.3-1.5,34.6-2.8,51.8c-1.7,22.2-4.2,44.3-5.9,66.5c-1,12.7-5.6,25.9,4.5,38c0.8-1.6,1.9-3,2.1-4.5
		c1.9-13.1,4.1-26.2,5.5-39.4c2.1-20.7,3.9-41.4,5.3-62.1c1.8-25.8,3.2-51.7,4.5-77.5c0.3-5.4,0-10.8-0.6-16.1
		c-0.2-1.5-2.1-3-3.4-4.2c-0.2-0.2-2.6,1.3-2.6,1.6C1305.1,1055,1306,1056.5,1306.8,1058z M1474.5,1069.3c-2.9-0.8-6.8-2.2-6.9-1.9
		c-2.4,5.2-5.5,10.4-6,15.9c-1.7,18-2.4,36.2-3.6,54.2c-0.4,6-5.8,5.6-9.4,6c-1.7,0.2-5.2-3.1-5.6-5.2c-1-5.5-1.4-11.3-0.6-16.7
		c2.5-18.1,5.7-36.1,8.6-54.2c0.3-2.2,0-4.4,0-7.6c-7.2,7.2-9.6,15-10.6,23.4c-0.8,6.6-2.3,13.1-3.1,19.7
		c-1.7,14.8-3.4,29.7-4.7,44.6c-0.3,3.3,0.5,6.4,5.9,5c5.3-1.4,11.1-1.1,17.2-1.6c-0.6,2.8-1.2,5.2-1.5,7.6c-1.1,8-2.5,16.1-3,24.2
		c-0.6,10.9-0.4,21.9-0.8,32.8c-0.2,5.3,2.9,9.8,8,8.9c2.1-0.4,4.6-4.9,4.8-7.6c1.6-19.2,3.1-38.5,3.7-57.8
		c1-29.9,6.6-59.1,11.7-88.4c0.3-1.6,0.2-3.4,0.3-5c-0.4-0.1-0.8-0.3-1.2-0.4C1476.3,1067,1474.8,1068.9,1474.5,1069.3z
		 M1174.8,1125.8c1-6.6-2.9-13.6-7.2-20.4c-0.4-0.7-3.9-0.5-4.1,0c-1.3,3.6-3.1,7.5-2.9,11.2c0.7,12.3,2.3,24.5,3.3,36.7
		c2.9,33.3,2.7,66.8,9.2,99.7c1.3,6.4-1.2,13.8,6,18.3c1.8,1.1,3,3.1,4.4,4.7c1.4-2,3.1-3.8,4-6c0.8-2.1,1.3-4.6,1-6.8
		c-2.5-19.4-5.8-38.8-7.8-58.2C1178.3,1179.3,1172.2,1153.8,1174.8,1125.8z M1259.5,1190.5c1.4-2.1,3.4-6.8,4.4-6.6
		c7.9,1.5,10.3-4.4,13.6-9.1c0.7-1,0.9-3.2,0.3-4c-0.9-1-2.8-1.7-4.2-1.7c-3.1,0-6.3,0.2-9.3,1c-1.8,0.5-4.5,2.1-4.6,3.4
		C1259.2,1179.3,1259.5,1185.2,1259.5,1190.5z"/>
	<path d="M1259,1151.7c-1.7,7.9-4,20.7-7.2,33.3c-4.7,18.5-9.9,36.9-15.1,55.3c-1.8,6.4-4.3,12.3-12.2,13.5c-2,0.3-3.9,1.8-5.6,3.1
		c-5.2,3.9-7.7,3.5-9-2.9c-3.3-15.6-7-31.2-8.6-47c-3.3-32.7-5.2-65.6-7.8-98.4c-0.8-9.8,6.6-16.4,15.2-20.1
		c14.4-6.1,27.4-1.3,37.3,10.8C1257.5,1113.3,1257.2,1130,1259,1151.7z M1211.9,1148.8c-0.5,0-1.1,0.1-1.6,0.1
		c2.5,27.5,5,54.9,7.7,82.4c0.1,1.5,1.1,2.9,1.7,4.3c1.5-0.9,3.7-1.5,4.4-2.8c2.2-4.1,3.8-8.5,5.7-12.7
		c6.9-15.1,12.6-30.5,11.3-47.5c-1.1-14.7-1.6-29.6-4.4-44c-1.4-7.1-7-13.7-12-19.4c-3.2-3.8-9.1-3.4-12.6,0.4
		c-2.1,2.2-2.6,6.4-2.6,9.8c0,3.2,2.1,6.4,2.3,9.7C1212.2,1135.5,1211.9,1142.2,1211.9,1148.8z M1205.1,1197.5
		c0.8,0,1.6-0.1,2.4-0.1c-0.8-10.8-1.6-21.7-2.4-32.5c-0.7,0-1.3,0.1-2,0.2C1203.8,1175.8,1204.4,1186.7,1205.1,1197.5z
		 M1222.9,1096.8c5.5,5.2,10.8,10.1,16,15C1238.4,1103.6,1230.1,1095.7,1222.9,1096.8z"/>
	<path d="M1123.9,1233.9c1.3-25,2.6-49.3,4-73.7c1.3-21.7,2.5-43.5,4.2-65.2c0.2-3.1,2.2-6.7,4.4-8.9c2.4-2.3,7.7,0.8,8.2,5.1
		c1.2,10,2.7,20.2,2.4,30.2c-1,31.4-2.4,62.9-4.5,94.2c-1.3,20-4.1,40-6.7,59.9c-0.4,2.9-3.9,5.5-5.9,8.2c-3-2.4-8-4.3-8.8-7.3
		c-4-14.8-7.5-29.9-10-45.1c-4.5-27.4-7.8-55-12.5-82.3c-1.4-8.3-6.4-16-8.7-24.2c-1.4-5.2-1.2-11-1.1-16.5c0-1.3,2.5-3.8,3.6-3.7
		c1.5,0.1,3.6,2.1,4.1,3.6c3.9,13.7,8.3,27.3,11.1,41.3c5.6,27.3,10.3,54.9,15.4,82.3C1123.3,1232.4,1123.6,1233,1123.9,1233.9z
		 M1138.9,1172.3c-0.5,0-1,0-1.6,0.1c0,4.5,0,8.9,0,13.4c0.2,0,0.4,0,0.6,0C1138.2,1181.2,1138.5,1176.7,1138.9,1172.3z"/>
	<path d="M926.7,1191.3c0.6-7.1,0.5-18.8,3-29.9c4-17.8,10.1-35.1,24.2-47.7c3.8-3.4,9.7-4.7,14.7-6.6c10.2-4,20.1-3.2,28.4,4
		c8.7,7.5,19.2,23.9,13,38.4c-1,2.4-4,4.1-6,6.1c-2.1-2.3-6.2-4.8-6-6.8c0.7-6.8-4.7-10-7.5-14.5c-2.4-3.9-6.6-6.7-10-10.1
		c-3.8-3.7-9.8-4.1-14-0.8c-12,9.7-19.9,21.6-23.6,37c-4.4,18.5-5.2,36.9-1.9,55.4c2,11.5,4.1,23.2,12.2,32.7
		c5.5,6.5,10.4,13.5,15.9,19.9c1.7,2,4.7,3.1,7.2,4.3c3.9,1.8,7,1.4,8.9-3.2c1.9-4.7,4.9-5.2,8.2-1.1c3,3.7,5.7,2,6.8-1.2
		c1.5-4.5,1.9-9.3,2.5-14.1c0.2-1.9-1-4.4-0.2-5.9c1.5-2.8,4-5.1,6.1-7.6c1.3,2.4,3.7,4.8,3.8,7.2c0.2,13.8-3.8,26.3-14.4,35.7
		c-4.6,4.1-10,7.5-15.3,10.6c-4.1,2.5-8.4,1.1-13.1,0.3c-14.7-2.7-20-14.3-26.3-25c-2.3-3.9-2.4-9-4.2-13.2
		C931,1236.2,927.1,1216.3,926.7,1191.3z"/>
	<path d="M1088.3,1190.3c-0.2,19.7-3.2,36.8-11.2,52.7c-3.5,7.1-7.6,13.9-11.9,20.5c-4.3,6.7-20.7,9.3-27.1,4.3
		c-1.4-1.1-2.9-3.7-2.5-4.9c3.3-10.5-3.3-19.4-4.6-29.1c-1.7-12.1-5.1-24.1-6.5-36.2c-1.5-13.4-1.9-26.9-2.3-40.3
		c-0.4-14,1-27.8,9.1-39.7c9.2-13.5,22.5-13.1,31.4,1.1c4.6,7.4,6.8,16.2,10.2,24.3c4.3,10.2,9.1,20.2,12.7,30.6
		C1087.7,1179.5,1087.7,1186,1088.3,1190.3z M1074.2,1214.1c-2.3-17-4.1-34-7.1-50.8c-1.8-9.9-5.3-19.4-8.8-28.9
		c-1.4-3.7-5-7.4-9.4-4.8c-2.8,1.6-4.7,5.4-6.1,8.7c-1.2,2.8-1.2,6.2-1.8,9.3c-1.3,6.7-3.2,13.3-3.9,20c-1.9,18.8-0.3,37.6,3.4,56
		c1.9,9.2,5.5,18.1,9.2,26.7c3,7,8.2,6.7,12.8,0.7C1071,1240,1073.4,1227.6,1074.2,1214.1z M1079.4,1209.7
		c3.7-8.5,2.2-25.6-1.8-29.3C1078.2,1189.6,1078.7,1198.8,1079.4,1209.7z"/>
	<path d="M1357.5,1136.2c-4.5,4-7.2,6.9-10.5,9.1c-5.4,3.6-10.7,1.7-13.5-4.1c-1.4-2.8-3.1-5.5-5-8c-9.5-12.3-10.9-26.4-7.3-40.7
		c2.6-10.5,8.7-20.1,18.8-24.8c4.4-2.1,10.5-2.2,16.4,0.9c10.2,5.3,10.2,15,11.8,23.6c3,15.6,1.6,31.4-0.8,47.2
		c-3.2,21.7-4.9,43.6-8.6,65.2c-2.1,12.4-3.2,25.6-12.1,35.8c-8.1,9.3-14.3,11.4-21.9-0.1c-6.4-9.7-10.8-20-8.8-31.9
		c0.4-2.3,2.7-4.3,4.1-6.5c1.5,2,3.8,3.9,4.3,6.1c1,5.5,0.6,11.3,1.9,16.7c0.8,3.1,3.8,7.8,5.9,7.9c3,0.1,7.1-2.9,8.9-5.7
		c13.2-21.6,16.1-45.8,16.3-70.5C1357.6,1150.2,1357.5,1144,1357.5,1136.2z M1335.4,1132.2c5.5,2.2,9.8,2.1,13.4-1.3
		c7.3-7,13-37.2,9.1-46.5c-2.6-6.2-8.1-8.4-14.1-5.8c-12.4,5.3-17.3,27.4-7.9,39.7C1339.7,1123.3,1340,1127.1,1335.4,1132.2z
		 M1323.9,1111.5c0.6,0.1,1.2,0.2,1.7,0.2c0.7-5.7,1.3-11.4,2-17.1c-0.7-0.1-1.4-0.1-2.2-0.2
		C1324.9,1100.1,1324.4,1105.8,1323.9,1111.5z M1328.1,1120.2c-0.5,0.1-1,0.3-1.4,0.4c1,2.3,2,4.6,3,6.9c0.5-0.2,1-0.5,1.4-0.7
		C1330.1,1124.6,1329.1,1122.4,1328.1,1120.2z"/>
	<path d="M1372.5,1208.3c4.3-11.6,8.4-23.3,13-34.7c3.7-9.2,8.1-18.1,11.9-27.3c0.5-1.2-0.4-3.4-1.2-4.8
		c-10.7-18.3-16.2-37.1-4.4-56.9c3.7-6.1,6.6-14,16-14c9.1,0,14,4,13.9,13c-0.1,8.2-1.4,16.6-3,24.7c-2,9.9-5.1,19.6-7.1,29.5
		c-0.7,3.4-0.5,7.9,1.1,10.9c9.8,18.1,7.6,35.5-1.9,52.7c-2.7,4.8-6.3,9-9.1,13.7c-3.3,5.4-8.8,7.1-14.3,8c-6.1,1-12.9-6.7-13-14.1
		C1373.7,1208.8,1373.1,1208.6,1372.5,1208.3z M1410.4,1170.6c-0.8-2.6-1.7-7-3.4-11c-1.5-3.6-4-3.8-6-0.1c-2.5,4.7-5,9.4-7.3,14.2
		c-3.9,8.3-7.8,16.5-11,25c-0.9,2.3-0.3,6.9,1.4,8.1c1.7,1.3,5.5-0.2,8.3-0.6c0.8-0.1,1.5-0.7,2.1-1.2
		C1405.7,1197,1409,1185.2,1410.4,1170.6z M1401,1082.2c-13.2,8.6-11.2,41.9,3,50.1c5.1-14.4,6.8-29,4.7-44
		c-0.6-3.8-2.8-4.3-5.4-1.4c-2.1,2.5-4.1,5.1-6.1,7.7c-0.7-0.4-1.4-0.9-2-1.3C1397,1089.8,1398.8,1086.3,1401,1082.2z"/>
	<path d="M1306.8,1058c-0.8-1.5-1.7-3-2.2-4.7c-0.1-0.3,2.3-1.8,2.6-1.6c1.4,1.2,3.3,2.6,3.4,4.2c0.6,5.3,0.9,10.8,0.6,16.1
		c-1.4,25.9-2.8,51.7-4.5,77.5c-1.4,20.7-3.2,41.4-5.3,62.1c-1.3,13.2-3.5,26.3-5.5,39.4c-0.2,1.5-1.4,3-2.1,4.5
		c-10.1-12.2-5.5-25.3-4.5-38c1.8-22.2,4.2-44.3,5.9-66.5c1.3-17.2,1.9-34.5,2.8-51.8c0-0.8,0-1.6-1.1-2.8c-0.7,1.5-1.5,2.9-2,4.4
		c-2.6,8.6-4.8,17.3-7.8,25.8c-2.8,7.7-6.4,15.2-9.8,22.7c-0.3,0.8-1.8,1-2.7,1.6c-0.6-1.3-1.8-2.7-1.6-3.8c1.4-7,2.7-14,4.8-20.8
		c5.5-17.6,11.2-35.1,17.2-52.5c1.6-4.8,4-9.4,6.6-13.8C1302.3,1058.7,1305.1,1058.6,1306.8,1058z"/>
	<path d="M1474.5,1069.3c0.4-0.5,1.8-2.3,3.2-4.2c0.4,0.1,0.8,0.3,1.2,0.4c-0.1,1.7-0.1,3.4-0.3,5c-5.1,29.3-10.7,58.5-11.7,88.4
		c-0.6,19.3-2.1,38.5-3.7,57.8c-0.2,2.8-2.8,7.3-4.8,7.6c-5.1,0.9-8.2-3.6-8-8.9c0.4-10.9,0.1-21.9,0.8-32.8
		c0.5-8.1,1.9-16.1,3-24.2c0.3-2.4,0.9-4.8,1.5-7.6c-6.1,0.5-11.9,0.2-17.2,1.6c-5.4,1.4-6.2-1.6-5.9-5c1.3-14.9,2.9-29.7,4.7-44.6
		c0.8-6.6,2.3-13.1,3.1-19.7c1-8.4,3.4-16.2,10.6-23.4c0,3.1,0.3,5.4,0,7.6c-2.8,18.1-6,36.1-8.6,54.2c-0.8,5.5-0.3,11.3,0.6,16.7
		c0.4,2.1,3.8,5.4,5.6,5.2c3.6-0.4,9,0,9.4-6c1.2-18.1,1.9-36.2,3.6-54.2c0.5-5.5,3.7-10.7,6-15.9
		C1467.7,1067.2,1471.5,1068.5,1474.5,1069.3z"/>
	<path d="M1174.8,1125.8c-2.6,28,3.5,53.5,6.1,79.2c1.9,19.5,5.2,38.8,7.8,58.2c0.3,2.2-0.2,4.7-1,6.8c-0.9,2.2-2.6,4-4,6
		c-1.5-1.6-2.7-3.6-4.4-4.7c-7.2-4.5-4.7-11.9-6-18.3c-6.5-32.9-6.4-66.5-9.2-99.7c-1.1-12.2-2.6-24.5-3.3-36.7
		c-0.2-3.7,1.6-7.5,2.9-11.2c0.2-0.5,3.6-0.6,4.1,0C1171.9,1112.2,1175.9,1119.1,1174.8,1125.8z"/>
	<path d="M1259.5,1190.5c0-5.3-0.3-11.2,0.2-17c0.1-1.3,2.8-2.9,4.6-3.4c3-0.8,6.2-1,9.3-1c1.5,0,3.4,0.6,4.2,1.7
		c0.6,0.8,0.4,3-0.3,4c-3.3,4.7-5.7,10.6-13.6,9.1C1262.9,1183.7,1260.9,1188.3,1259.5,1190.5z"/>
	<path class="st0" d="M1211.9,1148.8c0-6.7,0.3-13.3-0.1-20c-0.2-3.3-2.3-6.5-2.3-9.7c0-3.3,0.6-7.5,2.6-9.8
		c3.5-3.7,9.4-4.1,12.6-0.4c4.9,5.8,10.6,12.4,12,19.4c2.9,14.4,3.3,29.3,4.4,44c1.3,17-4.4,32.4-11.3,47.5
		c-1.9,4.2-3.5,8.6-5.7,12.7c-0.7,1.3-2.9,1.9-4.4,2.8c-0.6-1.4-1.6-2.8-1.7-4.3c-2.6-27.4-5.1-54.9-7.7-82.4
		C1210.8,1148.9,1211.4,1148.9,1211.9,1148.8z"/>
	<path class="st0" d="M1205.1,1197.5c-0.7-10.8-1.3-21.7-2-32.5c0.7-0.1,1.3-0.1,2-0.2c0.8,10.8,1.6,21.7,2.4,32.5
		C1206.7,1197.4,1205.9,1197.4,1205.1,1197.5z"/>
	<path class="st0" d="M1222.9,1096.8c7.2-1.1,15.5,6.8,16,15C1233.7,1106.9,1228.4,1102,1222.9,1096.8z"/>
	<path class="st0" d="M1138.9,1172.3c-0.3,4.5-0.6,9-0.9,13.4c-0.2,0-0.4,0-0.6,0c0-4.5,0-8.9,0-13.4
		C1137.8,1172.3,1138.3,1172.3,1138.9,1172.3z"/>
	<path class="st0" d="M1074.2,1214.1c-0.8,13.5-3.2,25.9-11.6,36.8c-4.6,6-9.8,6.4-12.8-0.7c-3.7-8.6-7.3-17.6-9.2-26.7
		c-3.7-18.4-5.3-37.2-3.4-56c0.7-6.7,2.6-13.3,3.9-20c0.6-3.1,0.6-6.4,1.8-9.3c1.4-3.2,3.3-7,6.1-8.7c4.4-2.6,8,1.1,9.4,4.8
		c3.4,9.5,7,19.1,8.8,28.9C1070.1,1180.1,1071.9,1197.2,1074.2,1214.1z"/>
	<path class="st0" d="M1079.4,1209.7c-0.7-10.9-1.3-20-1.8-29.3C1081.6,1184,1083.1,1201.1,1079.4,1209.7z"/>
	<path class="st0" d="M1335.4,1132.2c4.6-5.2,4.3-8.9,0.4-14c-9.3-12.2-4.5-34.3,7.9-39.7c6-2.6,11.5-0.3,14.1,5.8
		c4,9.3-1.8,39.6-9.1,46.5C1345.2,1134.4,1340.9,1134.5,1335.4,1132.2z"/>
	<path class="st0" d="M1323.9,1111.5c0.5-5.7,1.1-11.4,1.6-17.1c0.7,0.1,1.4,0.1,2.2,0.2c-0.7,5.7-1.3,11.4-2,17.1
		C1325,1111.7,1324.5,1111.6,1323.9,1111.5z"/>
	<path class="st0" d="M1328.1,1120.2c1,2.2,2,4.4,3,6.6c-0.5,0.2-1,0.5-1.4,0.7c-1-2.3-2-4.6-3-6.9
		C1327.2,1120.5,1327.7,1120.3,1328.1,1120.2z"/>
	<path class="st0" d="M1410.4,1170.6c-1.4,14.7-4.7,26.4-15.8,34.4c-0.7,0.5-1.4,1.1-2.1,1.2c-2.9,0.4-6.7,1.9-8.3,0.6
		c-1.7-1.3-2.3-5.8-1.4-8.1c3.2-8.5,7.2-16.7,11-25c2.2-4.8,4.8-9.5,7.3-14.2c2-3.8,4.5-3.6,6,0.1
		C1408.8,1163.6,1409.7,1168,1410.4,1170.6z"/>
	<path class="st0" d="M1401,1082.2c-2.2,4.1-4,7.6-5.8,11.1c0.7,0.4,1.4,0.9,2,1.3c2-2.6,4-5.2,6.1-7.7c2.6-3,4.8-2.5,5.4,1.4
		c2.2,15,0.4,29.6-4.7,44C1389.8,1124.1,1387.8,1090.8,1401,1082.2z"/>
</g>
</svg>
