<?xml version="1.0" encoding="UTF-8" standalone="no"?>
<!-- Created with Inkscape (http://www.inkscape.org/) -->

<svg
   xmlns:dc="http://purl.org/dc/elements/1.1/"
   xmlns:cc="http://creativecommons.org/ns#"
   xmlns:rdf="http://www.w3.org/1999/02/22-rdf-syntax-ns#"
   xmlns:svg="http://www.w3.org/2000/svg"
   xmlns="http://www.w3.org/2000/svg"
   xmlns:sodipodi="http://sodipodi.sourceforge.net/DTD/sodipodi-0.dtd"
   xmlns:inkscape="http://www.inkscape.org/namespaces/inkscape"
   width="2000"
   height="2000"
   viewBox="0 0 2000 2000"
   id="svg2"
   version="1.1"
   inkscape:version="0.91 r13725"
   sodipodi:docname="eprivacy_xvii.svg"
   inkscape:export-filename="/Users/h856605/Dropbox/PWS/Grafiche/eprivacy_xvii.png"
   inkscape:export-xdpi="300.04053"
   inkscape:export-ydpi="300.04053">
  <defs
     id="defs4" />
  <sodipodi:namedview
     id="base"
     pagecolor="#ffffff"
     bordercolor="#666666"
     borderopacity="1.0"
     inkscape:pageopacity="0.0"
     inkscape:pageshadow="2"
     inkscape:zoom="0.35"
     inkscape:cx="779.98635"
     inkscape:cy="818.77398"
     inkscape:document-units="px"
     inkscape:current-layer="layer1"
     showgrid="false"
     inkscape:window-width="1868"
     inkscape:window-height="1156"
     inkscape:window-x="72"
     inkscape:window-y="0"
     inkscape:window-maximized="0"
     units="px"
     width="900mm"
     fit-margin-top="0"
     fit-margin-left="0"
     fit-margin-right="0"
     fit-margin-bottom="0" />
  <metadata
     id="metadata7">
    <rdf:RDF>
      <cc:Work
         rdf:about="">
        <dc:format>image/svg+xml</dc:format>
        <dc:type
           rdf:resource="http://purl.org/dc/dcmitype/StillImage" />
        <dc:title></dc:title>
      </cc:Work>
    </rdf:RDF>
  </metadata>
  <g
     inkscape:label="Layer 1"
     inkscape:groupmode="layer"
     id="layer1"
     transform="translate(694.9879,515.49479)">
    <path
       style="fill:#000000"
       d="m 231.0121,1483.6581 c 0,-0.466 -7.6208,-1.1565 -16.935,-1.5346 -9.3143,-0.3781 -19.1018,-1.3054 -21.75,-2.0605 -2.6483,-0.7552 -9.99,-1.6829 -16.315,-2.0616 -6.325,-0.3786 -12.8734,-1.26 -14.552,-1.9586 -1.6786,-0.6985 -7.5286,-1.604 -13,-2.0122 -5.4714,-0.4081 -11.073,-1.3098 -12.448,-2.0038 -1.375,-0.6939 -6.3113,-1.5847 -10.9696,-1.9795 -4.6583,-0.3948 -9.6083,-1.3009 -11,-2.0136 -1.3917,-0.7126 -5.9054,-1.6156 -10.0304,-2.0065 -4.125001,-0.3909 -8.400001,-1.2756 -9.500001,-1.9659 -1.1,-0.6903 -4.925,-1.5816 -8.5,-1.9807 -3.575,-0.3991 -7.85,-1.3344 -9.5,-2.0784 -1.65,-0.744 -5.475,-1.653 -8.5,-2.02 -3.025,-0.367 -6.4113,-1.2436 -7.5251,-1.9479 -1.1139,-0.7043 -4.84,-1.6072 -8.2803,-2.0065 -3.4403,-0.3993 -6.8126,-1.2835 -7.494,-1.9648 -0.6814,-0.6814 -3.7052,-1.5625 -6.7197,-1.9581 -3.0145,-0.3956 -6.4439,-1.3453 -7.6209,-2.1104 -1.177,-0.7652 -4.4692,-1.7002 -7.3162,-2.0779 -2.8469,-0.3776 -5.7235,-1.2339 -6.3924,-1.9028 -0.6689,-0.669 -3.4516,-1.547 -6.1838,-1.9513 -2.7321997,-0.4043 -5.6425997,-1.3102 -6.4675997,-2.0132 -0.825,-0.703 -3.52500001,-1.5857 -6,-1.9617 -2.475,-0.3759 -5.4098,-1.2788 -6.5218,-2.0065 -1.1121,-0.7277 -3.9335003,-1.646 -6.2699003,-2.0407 -2.3363,-0.3947 -4.8438,-1.3135 -5.572,-2.0418 -0.7282,-0.7282 -3.4048,-1.6361 -5.948,-2.0174 -2.5431,-0.3814 -5.1143,-1.2843 -5.7137,-2.0065 -0.5993,-0.7223 -2.9763,-1.6223 -5.2822,-2.0002 -2.3058,-0.3779 -4.8674,-1.263 -5.6924,-1.9669 -0.825,-0.7039 -3.075,-1.5991 -5,-1.9893 -1.925,-0.3902 -4.4066,-1.2812 -5.5147,-1.9801 -1.108,-0.6989 -3.583,-1.6048 -5.5,-2.0132 -1.9169,-0.4083 -4.1603,-1.3172 -4.9853,-2.0198 -0.825,-0.7026 -3.075,-1.6026 -5,-2 -1.925,-0.3974 -4.175,-1.2699 -5,-1.9388 -0.825,-0.6689 -3.4125,-1.7619 -5.75,-2.4288 -2.3375,-0.667 -4.25,-1.6051 -4.25,-2.0846 0,-0.4796 -1.8313,-1.1814 -4.0696,-1.5596 -2.2383,-0.3781 -4.2986,-1.2841 -4.5784,-2.0132 -0.2798,-0.7291 -2.2475,-1.6195 -4.3728,-1.9785 -2.1252,-0.3591 -4.385199,-1.2808 -5.022099,-2.0482 -0.6369,-0.7675 -2.6718,-1.6794 -4.522,-2.0264 -1.8501,-0.3471 -3.8751,-1.2471 -4.5,-2 -0.6248,-0.753 -2.7018,-1.6627 -4.6154,-2.0217 -1.9137,-0.359 -3.6996,-1.2267 -3.9688,-1.9282 -0.2692,-0.7015 -1.9881,-1.5565 -3.8197,-1.9002 -1.8316,-0.3436 -3.8566,-1.2589 -4.4998,-2.034 -0.6433,-0.7751 -2.4574,-1.6921 -4.0314,-2.0378 -1.574,-0.3457 -3.374,-1.2457 -4,-2 -0.626,-0.7543 -2.426,-1.6543 -4,-2 -1.574,-0.3457 -3.374,-1.2457 -4,-2 -0.626,-0.7543 -2.426,-1.6543 -4,-2 -1.574,-0.3457 -3.374,-1.2457 -4,-2 -0.626,-0.7543 -2.4875,-1.6678 -4.1367,-2.03 -1.6491,-0.3622 -3.2365,-1.2789 -3.5274,-2.0371 -0.291,-0.7582 -2.0965,-1.6726 -4.0123,-2.032 -1.9158,-0.3594 -3.7049,-1.231 -3.9758,-1.9369 -0.2709,-0.7059 -1.6301,-1.569 -3.0205,-1.918 -1.3904,-0.3489 -3.7203,-1.4201 -5.1776,-2.3803 -4.1481,-2.7331 -6.4123,-4.0834 -9.6497,-5.7545 -1.65,-0.8518 -4.8,-2.6244 -7,-3.9393 -2.2,-1.3148 -5.35,-3.0998 -7,-3.9665 -1.65,-0.8667 -4.8,-2.6761 -7,-4.0208 -2.2,-1.3447 -5.125,-3.0069 -6.5,-3.6937 -1.375,-0.6868 -2.8599,-1.8208 -3.2997,-2.5198 -0.4398,-0.6991 -1.3398,-1.2738 -2,-1.2772 -0.6602,0 -4.1253,-2.0256 -7.7003,-4.4939 -3.575,-2.4683 -7.0766,-4.4906 -7.7814,-4.4939 -0.7048,0 -1.5404,-0.6811 -1.857,-1.5061 -0.3166,-0.825 -1.0271,-1.5 -1.5789,-1.5 -1.4687,0 -10.7827,-6.192 -10.7827,-7.1684 0,-0.4574 -0.4996,-0.8316 -1.1103,-0.8316 -1.5457,0 -10.8897,-6.1509 -10.8897,-7.1684 0,-0.4574 -0.6405,-0.8316 -1.4233,-0.8316 -0.7828,0 -2.7602,-1.125 -4.3943,-2.5 -1.6341,-1.375 -3.3184,-2.5 -3.7429,-2.5 -0.4244,0 -1.4845,-0.6541 -2.3556,-1.4536 -5.0224,-4.6092 -6.0561,-5.4037 -7.7352,-5.9453 -1.0168,-0.328 -3.5239,-2.1381 -5.5713,-4.0226 -2.0474,-1.8845 -4.6349,-3.7159 -5.75,-4.0698 -1.1151,-0.3539 -2.0274,-1.0516 -2.0274,-1.5504 0,-0.4988 -1.2375,-1.5614 -2.75,-2.3612 -1.5125,-0.7999 -4.2403,-2.8364 -6.0617,-4.5257 -1.8215,-1.6893 -3.5565,-3.0714 -3.8557,-3.0714 -0.2991,0 -1.7627,-1.0125 -3.2523,-2.25 -1.4896,-1.2375 -3.9954,-3.15 -5.5684,-4.25 -1.573,-1.1 -3.8458,-3.0125 -5.0506,-4.25 -1.2049,-1.2375 -2.7015,-2.25 -3.326,-2.25 -0.6244,0 -1.1353,-0.3575 -1.1353,-0.7945 0,-0.437 -2.3315,-2.5726 -5.1811,-4.7457 -6.2305,-4.7514 -11.4205,-9.161 -14.3709,-12.2098 -1.1975,-1.2375 -2.4627,-2.25 -2.8115,-2.25 -0.3488,0 -2.4151,-1.6875 -4.5918,-3.75 -2.1767,-2.0625 -5.2147,-4.8064 -6.7511,-6.0976 -7.9757,-6.7024 -16.3648,-14.3148 -21.9331,-19.9024 -3.4257,-3.4375 -6.7082,-6.25 -7.2945,-6.25 -0.5863,0 -1.066,-0.6891 -1.066,-1.5314 0,-0.8422 -0.6744,-1.7902 -1.4986,-2.1064 -1.9541,-0.7499 -26.1137,-24.9095 -26.8636,-26.8636 -0.3163,-0.8242 -1.2642,-1.4986 -2.1064,-1.4986 -0.8423,0 -1.5314,-0.4797 -1.5314,-1.066 0,-0.5863 -2.8125,-3.8688 -6.25,-7.2945 -5.5876,-5.5683 -13.2,-13.9574 -19.9024,-21.9331 -1.2912,-1.5364 -4.0351,-4.5744 -6.0976,-6.7511 -2.0625,-2.1767 -3.75,-4.243 -3.75,-4.5918 0,-0.3488 -1.0125,-1.614 -2.25,-2.8115 -3.0488,-2.9504 -7.4584,-8.1404 -12.2098,-14.3709 -2.1731,-2.8496 -4.3087,-5.1811 -4.7457,-5.1811 -0.437,0 -0.7945,-0.5109 -0.7945,-1.1353 0,-0.6245 -1.0125,-2.1211 -2.25,-3.326 -1.2375,-1.2048 -3.15,-3.4776 -4.25,-5.0506 -1.1,-1.573 -3.0125,-4.0788 -4.25,-5.5684 -1.2375,-1.4896 -2.25,-2.9532 -2.25,-3.2523 0,-0.2992 -1.3821,-2.0342 -3.0714,-3.8557 -1.6893,-1.8214 -3.7258,-4.5492 -4.5257,-6.0617 -0.7998,-1.5125 -1.8624,-2.75 -2.3612,-2.75 -0.4988,0 -1.1965,-0.9123 -1.5504,-2.0274 -0.3539,-1.1151 -2.1853,-3.7026 -4.0698,-5.75 -1.8845,-2.0474 -3.6947,-4.5545 -4.0226,-5.5713 -0.5416,-1.6791 -1.3361,-2.7128 -5.9453,-7.7352 -0.7995,-0.8711 -1.4536,-1.9312 -1.4536,-2.3556 0,-0.4245 -1.125,-2.1088 -2.5,-3.7429 -1.375,-1.6341 -2.5,-3.6115 -2.5,-4.3943 0,-0.7828 -0.3742,-1.4233 -0.8316,-1.4233 -1.0175,0 -7.1684,-9.344 -7.1684,-10.8897 0,-0.6107 -0.3742,-1.1103 -0.8316,-1.1103 -0.9764,0 -7.1684,-9.314 -7.1684,-10.7827 0,-0.5518 -0.675,-1.2623 -1.5,-1.5789 -0.825,-0.3166 -1.5027,-1.1523 -1.5061,-1.857 0,-0.7048 -2.0256,-4.2064 -4.4939,-7.7814 -2.4683,-3.575 -4.4906,-7.0401 -4.4939,-7.7003 0,-0.6602 -0.5781,-1.5602 -1.2772,-2 -0.699,-0.4398 -1.833,-1.9247 -2.5198,-3.2997 -0.6868,-1.375 -2.349,-4.30003 -3.6937,-6.50003 -1.3447,-2.2 -3.1541,-5.35 -4.0208,-7 -0.8667,-1.65 -2.6517,-4.8 -3.9665,-7 -1.3149,-2.2 -3.0875,-5.35 -3.9393,-7 -1.6712,-3.2374 -3.0214,-5.5016 -5.7545,-9.6497 -0.9602,-1.4573 -2.0314,-3.7872 -2.3803,-5.1776 -0.349,-1.3904 -1.2121,-2.7496 -1.918,-3.0205 -0.7059,-0.2709 -1.5775,-2.06 -1.9369,-3.9758 -0.3594,-1.9158 -1.2738,-3.7213 -2.032,-4.0123 -0.7582,-0.2909 -1.6749,-1.8783 -2.0371,-3.5274 -0.3622,-1.6492 -1.2757,-3.5107 -2.03,-4.1367 -0.7543,-0.626 -1.6543,-2.426 -2,-4 -0.3457,-1.574 -1.2457,-3.374 -2,-4 -0.7543,-0.626 -1.6543,-2.426 -2,-4 -0.3457,-1.574 -1.2457,-3.374 -2,-4 -0.7543,-0.626 -1.6543,-2.426 -2,-4 -0.3457,-1.574 -1.2627,-3.3881 -2.0378,-4.0314 -0.7751,-0.6433 -1.6904,-2.6682 -2.034,-4.4998 -0.3437,-1.8317 -1.1987,-3.5505 -1.9002,-3.8197 -0.7015,-0.2692 -1.5692,-2.0551 -1.9282,-3.9688 -0.359,-1.9136 -1.2687,-3.9906 -2.0217,-4.6154 -0.7529,-0.6249 -1.6529,-2.6499 -2,-4.5 -0.347,-1.8502 -1.2589,-3.8851 -2.0264,-4.522 -0.7674,-0.6369 -1.6891,-2.8969 -2.0482,-5.0221 -0.3591,-2.1253 -1.2494,-4.093 -1.9785,-4.3728 -0.7291,-0.2798 -1.6351,-2.3401 -2.0132,-4.5784 -0.3782,-2.2383 -1.08,-4.0696 -1.5596,-4.0696 -0.4795,0 -1.4176,-1.9125 -2.0846,-4.25 -0.667,-2.3375 -1.7599,-4.925 -2.4288,-5.75 -0.6689,-0.825 -1.5414,-3.075 -1.9388,-5 -0.3974,-1.925 -1.2974,-4.175 -2,-5 -0.7026,-0.825 -1.6115,-3.0684 -2.0199,-4.9853 -0.4083,-1.917 -1.3142,-4.392 -2.0131,-5.5 -0.6989,-1.1081 -1.5899,-3.5897 -1.9801,-5.5147 -0.3902,-1.925 -1.2854,-4.175 -1.9893,-5 -0.7039,-0.825 -1.589,-3.3866 -1.9669,-5.6924 -0.3779,-2.3059 -1.278,-4.6829 -2.0002,-5.2823 -0.7222,-0.5993 -1.6251,-3.1705 -2.0065,-5.7136 -0.3813,-2.5432 -1.2892,-5.2198 -2.0174,-5.948 -0.7283,-0.7282 -1.6471,-3.2357 -2.0418,-5.572 -0.3947,-2.3364 -1.3131,-5.1579 -2.0407,-6.2699 -0.7277,-1.112 -1.6306,-4.0468 -2.0065,-6.5218 -0.376,-2.475 -1.2587,-5.175 -1.9617,-6 -0.703,-0.825 -1.6089,-3.7354 -2.0132,-6.4676 -0.4043,-2.7322 -1.2824,-5.5149 -1.9513,-6.1838 -0.6689,-0.6689 -1.5252,-3.5455 -1.9028,-6.3924 -0.3777,-2.847 -1.3127,-6.1392 -2.0779,-7.3162 -0.7651,-1.177 -1.7148,-4.6064 -2.1104,-7.6209 -0.3956,-3.0145 -1.2767,-6.0384 -1.9581,-6.7197 -0.6813,-0.6814 -1.5655,-4.0537 -1.9648,-7.494 -0.3993,-3.4403 -1.3022,-7.1664 -2.0065,-8.2803 -0.7043,-1.1138 -1.5809,-4.5001 -1.9479,-7.5251 -0.367,-3.025 -1.276,-6.85 -2.02,-8.5 -0.744,-1.65 -1.6793,-5.925 -2.0784,-9.5 -0.3991,-3.575 -1.2904,-7.4 -1.9807,-8.5 -0.6903,-1.1 -1.575,-5.375 -1.9659,-9.5 -0.391,-4.125 -1.2939,-8.6387 -2.0065,-10.0304 -0.7127,-1.3917 -1.6188,-6.3417 -2.0136,-11 -0.3948,-4.6583 -1.2856,-9.5946 -1.9796,-10.9696 -0.6939,-1.375 -1.5956,-6.9766 -2.0037,-12.448 -0.4082,-5.4714 -1.3137,-11.3214 -2.0122,-13 -0.6986,-1.6786 -1.58,-8.227 -1.9586,-14.552 -0.3787,-6.325 -1.3064,-13.6667 -2.0616,-16.315 -0.7551,-2.6482 -1.6824,-12.4357 -2.0605,-21.75 -0.3781,-9.3142 -1.0686,-16.935 -1.5346,-16.935 -0.4659,0 -0.8471,-33.3 -0.8471,-74 0,-40.7 0.3812,-74 0.8471,-74 0.466,0 1.1565,-7.62075 1.5346,-16.93501 0.3781,-9.31426 1.3054,-19.10176 2.0605,-21.75 0.7552,-2.64824 1.6829,-9.98999 2.0616,-16.31499 0.3786,-6.325 1.26,-12.87339 1.9586,-14.55198 0.6985,-1.67859 1.604,-7.52859 2.0122,-13 0.4081,-5.47141 1.3098,-11.07302 2.0037,-12.44802 0.694,-1.375 1.5848,-6.31132 1.9796,-10.9696 0.3948,-4.65828 1.3009,-9.60828 2.0136,-11 0.7126,-1.39172 1.6156,-5.9054 2.0065,-10.0304 0.3909,-4.125 1.2756,-8.4 1.9659,-9.5 0.6903,-1.1 1.5816,-4.925 1.9807,-8.5 0.3991,-3.575 1.3344,-7.85 2.0784,-9.5 0.744,-1.65 1.653,-5.475 2.02,-8.5 0.367,-3.025 1.2436,-6.41131 1.9479,-7.52513 0.7043,-1.11383 1.6072,-4.83995 2.0065,-8.28027 0.3993,-3.44033 1.2835,-6.81262 1.9648,-7.49398 0.6814,-0.68137 1.5625,-3.70524 1.9581,-6.71973 0.3956,-3.01449 1.3453,-6.44388 2.1104,-7.62087 0.7652,-1.17698 1.7002,-4.46926 2.0779,-7.31618 0.3776,-2.84691 1.2339,-5.7235 1.9028,-6.39242 0.6689,-0.66892 1.547,-3.45163 1.9513,-6.18382 0.4043,-2.73218 1.3102,-5.6426 2.0132,-6.4676 0.703,-0.825 1.5857,-3.525 1.9617,-6 0.3759,-2.475 1.2788,-5.40983 2.0065,-6.52184 0.7276,-1.11201 1.646,-3.93342 2.0407,-6.26981 0.3947,-2.33639 1.3135,-4.84382 2.0418,-5.57206 0.7282,-0.72823 1.6361,-3.40482 2.0174,-5.94796 0.3814,-2.54314 1.2843,-5.11429 2.0065,-5.71368 0.7222,-0.59938 1.6223,-2.97638 2.0002,-5.28222 0.3779,-2.30584 1.263,-4.86743 1.9669,-5.69243 0.7039,-0.825 1.5991,-3.075 1.9893,-5 0.3902,-1.925 1.2812,-4.4066 1.9801,-5.51467 0.6989,-1.10806 1.6048,-3.58306 2.0131,-5.5 0.4084,-1.91693 1.3173,-4.16033 2.0199,-4.98533 0.7026,-0.825 1.6026,-3.075 2,-5 0.3974,-1.925 1.2699,-4.175 1.9388,-5 0.6689,-0.825 1.7618,-3.4125 2.4288,-5.749996 0.667,-2.3375 1.6051,-4.25 2.0846,-4.25 0.4796,0 1.1814,-1.83133 1.5596,-4.06963 0.3781,-2.23829 1.2841,-4.29855 2.0132,-4.57834 0.7291,-0.27979 1.6194,-2.24755 1.9785,-4.3728 0.3591,-2.12525 1.2808,-4.38522 2.0482,-5.02215 0.7675,-0.63692 1.6794,-2.6718 2.0264,-4.52193 0.3471,-1.85014 1.2471,-3.87514 2,-4.5 0.753,-0.62487 1.6627,-2.70183 2.0217,-4.61547 0.359,-1.91365 1.2267,-3.6996 1.9282,-3.96879 0.7015,-0.26918 1.5565,-1.98804 1.9002,-3.81968 0.3436,-1.83163 1.2589,-3.85656 2.034,-4.49983 0.7751,-0.64326 1.6921,-2.45739 2.0378,-4.03138 0.3457,-1.57399 1.2457,-3.37399 2,-4 0.7543,-0.62601 1.6543,-2.42601 2,-4 0.3457,-1.57399 1.2457,-3.37399 2,-4 0.7543,-0.62601 1.6543,-2.42601 2,-4 0.3457,-1.57399 1.2457,-3.37399 2,-4 0.7543,-0.62601 1.6678,-2.48751 2.03,-4.13667 0.3622,-1.64916 1.2789,-3.23651 2.0371,-3.52745 0.7582,-0.29094 1.6726,-2.09646 2.032,-4.01227 0.3594,-1.91581 1.231,-3.70492 1.9369,-3.97581 0.7059,-0.27088 1.569,-1.6301 1.918,-3.0204702 0.3489,-1.39038 1.4201,-3.72032 2.3803,-5.17765 2.7331,-4.14804002 4.0833,-6.41227 5.7545,-9.64968 0.8518,-1.65 2.6244,-4.7999998 3.9393,-6.9999998 1.3148,-2.2 3.0998,-5.35 3.9665,-7 0.8667,-1.65 2.6761,-4.8 4.0208,-7 1.3447,-2.2 3.0069,-5.125 3.6937,-6.5 0.6868,-1.375 1.8208,-2.85986 2.5198,-3.29969 0.6991,-0.43983 1.2738,-1.33983 1.2772,-2 0,-0.66017 2.0256,-4.12531 4.4939,-7.70027 2.4683,-3.575 4.4906,-7.0767 4.4939,-7.7814 0,-0.7048 0.6811,-1.5404 1.5061,-1.857 0.825,-0.3166 1.5,-1.0271 1.5,-1.5789 0,-1.4687 6.192,-10.7827 7.1684,-10.7827 0.4574,0 0.8316,-0.4997 0.8316,-1.1103 0,-1.5458 6.1509,-10.8897 7.1684,-10.8897 0.4574,0 0.8316,-0.6405 0.8316,-1.4233 0,-0.7828 1.125,-2.7603 2.5,-4.3944 1.375,-1.6341 2.5,-3.3183 2.5,-3.7428 0,-0.4245 0.6541,-1.4845 1.4536,-2.3557 4.6092,-5.0223 5.4037,-6.056 5.9453,-7.735104 0.3279,-1.0168 2.1381,-3.5239 4.0226,-5.5713 1.8845,-2.0475 3.7159,-4.635 4.0698,-5.75 0.3539,-1.1151 1.0516,-2.0274 1.5504,-2.0274 0.4988,0 1.5614,-1.2375 2.3612,-2.75 0.7999,-1.5125 2.8364,-4.2403 4.5257,-6.0618 1.6893,-1.8214 3.0714,-3.5564 3.0714,-3.8556 0,-0.2992 1.0125,-1.7627 2.25,-3.2523 1.2375,-1.4897 3.15,-3.9954 4.25,-5.5684 1.1,-1.5731 3.0125,-3.8458 4.25,-5.0507 1.2375,-1.2048 2.25,-2.7015 2.25,-3.3259 0,-0.6244 0.3575,-1.1353 0.7945,-1.1353 0.437,0 2.5726,-2.3316 4.7457,-5.1812 4.7514,-6.2304 9.161,-11.4205 12.2098,-14.3708 1.2375,-1.1976 2.25,-2.4628 2.25,-2.8116 0,-0.3488 1.6875,-2.4151 3.75,-4.5917 2.0625,-2.1767 4.8064,-5.2147 6.0976,-6.7512 6.7024,-7.9757 14.3148,-16.3648 19.9024,-21.9331 3.4375,-3.4256 6.25,-6.7081 6.25,-7.2944 0,-0.5863 0.6891,-1.066 1.5314,-1.066 0.8422,0 1.7901,-0.6744 2.1064,-1.4987 0.7499,-1.954 24.9095,-26.1137 26.8636,-26.8635 0.8242,-0.3163 1.4986,-1.2642 1.4986,-2.1065 0,-0.8422 0.4797,-1.5313 1.066,-1.5313 0.5863,0 3.8688,-2.8125 7.2945,-6.25 5.5683,-5.5876 13.9574,-13.2 21.9331,-19.9025 1.5364,-1.2911 4.5744,-4.035 6.7511,-6.0975 2.1767,-2.0625 4.243,-3.75 4.5918,-3.75 0.3488,0 1.614,-1.0125 2.8115,-2.25 2.9504,-3.0489 8.1404,-7.4584 14.3709,-12.2098 2.8496,-2.1732 5.1811,-4.3087 5.1811,-4.7457 0,-0.437 0.5109,-0.7945 1.1353,-0.7945 0.6245,0 2.1211,-1.0125 3.326,-2.25 1.2048,-1.2375 3.4776,-3.15 5.0506,-4.25 1.573,-1.1 4.0788,-3.0125 5.5684,-4.25 1.4896,-1.2375 2.9532,-2.25 3.2523,-2.25 0.2992,0 2.0342,-1.3822 3.8557,-3.0714 1.8214,-1.6893 4.5492,-3.7259 6.0617,-4.5257 1.5125,-0.7999 2.75,-1.8624 2.75,-2.3612 0,-0.4989 0.9123,-1.1965 2.0274,-1.5504 1.1151,-0.354 3.7026,-2.1854 5.75,-4.0698 2.0474,-1.8845 4.5545,-3.6947 5.5713,-4.0227 1.6791,-0.5416 2.7128,-1.3361 7.7352,-5.9453 0.8711,-0.7994 1.9312,-1.4535 2.3556,-1.4535 0.4245,0 2.1088,-1.125 3.7429,-2.5 1.6341,-1.375 3.6115,-2.5 4.3943,-2.5 0.7828,0 1.4233,-0.3743 1.4233,-0.8316 0,-1.0175 9.344,-7.1684 10.8897,-7.1684 0.6107,0 1.1103,-0.3743 1.1103,-0.8316 0,-0.9764 9.314,-7.1684 10.7827,-7.1684 0.5518,0 1.2623,-0.675 1.5789,-1.5 0.3166,-0.825 1.1522,-1.5028 1.857,-1.5061 0.7048,0 4.2064,-2.0256 7.7814,-4.4939 3.575,-2.4683 7.0401,-4.4906 7.7003,-4.494 0.6602,0 1.5602,-0.578 2,-1.2771 0.4398,-0.6991 1.9247,-1.833 3.2997,-2.5198 1.375,-0.6869 4.3,-2.349 6.5,-3.6937 2.2,-1.3447 5.35,-3.1541 7,-4.0208 1.65,-0.8668 4.8,-2.6517 7,-3.9666 2.2,-1.3148 5.35,-3.0875 7,-3.9392 3.2374,-1.6712 5.5016,-3.0214 9.6497,-5.7545 1.4573,-0.9603 3.7872,-2.0314 5.1776,-2.3804 1.3904,-0.3489 2.7496,-1.212 3.0205,-1.9179 0.2709,-0.7059 2.06,-1.5776 3.9758,-1.937 1.9158,-0.3594 3.7213,-1.2738 4.0123,-2.0319 0.2909,-0.7582 1.8783,-1.6749 3.5274,-2.0371 1.6492,-0.3622 3.5107,-1.2758 4.1367,-2.03 0.626,-0.7543 2.426,-1.6543 4,-2 1.574,-0.3458 3.374,-1.2458 4,-2 0.626,-0.7543 2.426,-1.6543 4,-2 1.574,-0.3458 3.374,-1.2458 4,-2 0.626,-0.7543 2.426,-1.6543 4,-2 1.574,-0.3458 3.3881,-1.2628 4.0314,-2.0379 0.6432,-0.7751 2.6682,-1.6904 4.4998,-2.034 1.8316,-0.3436 3.5505,-1.1987 3.8197,-1.9002 0.2692,-0.7015 2.0551,-1.5691 3.9688,-1.9281 1.9136,-0.359 3.9906,-1.2688 4.6154,-2.0217 0.6249,-0.7529 2.6499,-1.6529 4.5,-2 1.8502,-0.3471 3.8851,-1.259 4.522,-2.0264 0.6369,-0.7675 2.896899,-1.6892 5.022099,-2.0482 2.1253,-0.3591 4.093,-1.2494 4.3728,-1.9785 0.2798,-0.7292 2.3401,-1.6351 4.5784,-2.0133 2.2383,-0.3781 4.0696,-1.0799 4.0696,-1.5595 0,-0.4796 1.9125,-1.4177 4.25,-2.0846 2.3375,-0.667 4.925,-1.76 5.75,-2.4289 0.825,-0.6689 3.075,-1.5413 5,-1.9387 1.925,-0.3975 4.175,-1.2975 5,-2 0.825,-0.7026 3.0684,-1.6116 4.9853,-2.0199 1.917,-0.4083 4.392,-1.3142 5.5,-2.0131 1.1081,-0.6989 3.5897,-1.59 5.5147,-1.9802 1.925,-0.3902 4.175,-1.2854 5,-1.9893 0.825,-0.7039 3.3866,-1.589 5.6924,-1.9668 2.3059,-0.3779 4.6829,-1.278 5.2822,-2.0002 0.5994,-0.7222 3.1706,-1.6251 5.7137,-2.0065 2.5432,-0.3814 5.2198,-1.2892 5.948,-2.0175 0.7282,-0.7282 3.2357,-1.647 5.572,-2.0417 2.3364,-0.3948 5.1578003,-1.3131 6.2699003,-2.0407 1.112,-0.7277 4.0468,-1.6306 6.5218,-2.0066 2.47499999,-0.3759 5.175,-1.2587 6,-1.9617 0.825,-0.7029 3.7354,-1.6089 6.4675997,-2.0132 2.7322,-0.4042 5.5149,-1.2823 6.1838,-1.9512 0.6689,-0.6689 3.5455,-1.5252 6.3924,-1.9029 2.847,-0.3776 6.1392,-1.3126 7.3162,-2.0778 1.177,-0.7651 4.6064,-1.7148 7.6209,-2.1104 3.0145,-0.3956 6.0383,-1.2767 6.7197,-1.9581 0.6814,-0.6814 4.0537,-1.5655 7.494,-1.9648 3.4403,-0.3993 7.1664,-1.3023 8.2803,-2.0066 1.1138,-0.7043 4.5001,-1.5808 7.5251,-1.9478 3.025,-0.367 6.85,-1.276 8.5,-2.0201 1.65,-0.744 5.925,-1.6792 9.5,-2.0783 3.575,-0.3992 7.4,-1.2905 8.5,-1.9808 1.1,-0.6903 5.375,-1.5749 9.500001,-1.9659 4.125,-0.3909 8.6387,-1.2938 10.0304,-2.0065 1.3917,-0.7126 6.3417,-1.6187 11,-2.0135 4.6583,-0.3949 9.5946,-1.2857 10.9696,-1.9796 1.375,-0.6939 6.9766,-1.5956 12.448,-2.0038 5.4714,-0.4081 11.3214,-1.3136 13,-2.0122 1.6786,-0.6985 8.227,-1.5799 14.552,-1.9586 6.325,-0.3787 13.6667,-1.3064 16.315,-2.0615 2.6482,-0.7552 12.4357,-1.6824 21.75,-2.0605 9.3142,-0.3781 16.935,-1.0687 16.935,-1.5346 0,-0.4659 33.3,-0.8471 74,-0.8471 40.7,0 74,0.3812 74,0.8471 0,0.4659 7.6208,1.1565 16.935,1.5346 9.3143,0.3781 19.1018,1.3053 21.75,2.0605 2.6483,0.7551 9.99,1.6828 16.315,2.0615 6.325,0.3787 12.8734,1.2601 14.552,1.9586 1.6786,0.6986 7.5286,1.6041 13,2.0122 5.4714,0.4082 11.073,1.3099 12.448,2.0038 1.375,0.6939 6.3113,1.5847 10.9696,1.9796 4.6583,0.3948 9.6083,1.3009 11,2.0135 1.3917,0.7127 5.9054,1.6156 10.0304,2.0065 4.125,0.391 8.4,1.2756 9.5,1.9659 1.1,0.6903 4.925,1.5816 8.5,1.9808 3.575,0.3991 7.85,1.3343 9.5,2.0783 1.65,0.7441 5.475,1.6531 8.5,2.0201 3.025,0.367 6.4113,1.2435 7.5251,1.9478 1.1139,0.7043 4.84,1.6073 8.2803,2.0066 3.4403,0.3993 6.8126,1.2834 7.494,1.9648 0.6813,0.6814 3.7052,1.5625 6.7197,1.9581 3.0145,0.3956 6.4439,1.3453 7.6209,2.1104 1.177,0.7652 4.4692,1.7002 7.3162,2.0778 2.8469,0.3777 5.7235,1.234 6.3924,1.9029 0.6689,0.6689 3.4516,1.547 6.1838,1.9512 2.7322,0.4043 5.6426,1.3103 6.4676,2.0132 0.825,0.703 3.525,1.5858 6,1.9617 2.47502,0.376 5.40982,1.2789 6.52182,2.0066 1.112,0.7276 3.9335,1.6459 6.2699,2.0407 2.3363,0.3947 4.8438,1.3135 5.572,2.0417 0.7282,0.7283 3.4048,1.6361 5.948,2.0175 2.5431,0.3814 5.1143,1.2843 5.7136,2.0065 0.5994,0.7222 2.9764,1.6223 5.2823,2.0002 2.3058,0.3778 4.8674,1.2629 5.6924,1.9668 0.825,0.7039 3.075,1.5991 5,1.9893 1.925,0.3902 4.4066,1.2813 5.5147,1.9802 1.108,0.6989 3.583,1.6048 5.5,2.0131 1.9169,0.4083 4.1603,1.3173 4.9853,2.0199 0.825,0.7025 3.075,1.6025 5,2 1.925,0.3974 4.175,1.2698 5,1.9387 0.825,0.6689 3.4125,1.7619 5.75,2.4289 2.3375,0.6669 4.25,1.605 4.25,2.0846 0,0.4796 1.8313,1.1814 4.0696,1.5595 2.2383,0.3782 4.2986,1.2841 4.5784,2.0133 0.2798,0.7291 2.2475,1.6194 4.3728,1.9785 2.1252,0.359 4.3852,1.2807 5.0221,2.0482 0.6369,0.7674 2.6718,1.6793 4.522,2.0264 1.8501,0.3471 3.8751,1.2471 4.5,2 0.6248,0.7529 2.7018,1.6627 4.6154,2.0217 1.9137,0.359 3.6996,1.2266 3.9688,1.9281 0.2692,0.7015 1.988,1.5566 3.8197,1.9002 1.8316,0.3436 3.8565,1.2589 4.4998,2.034 0.6433,0.7751 2.4574,1.6921 4.0314,2.0379 1.574,0.3457 3.374,1.2457 4,2 0.626,0.7542 2.426,1.6542 4,2 1.574,0.3457 3.374,1.2457 4,2 0.626,0.7542 2.426,1.6542 4,2 1.574,0.3457 3.374,1.2457 4,2 0.626,0.7542 2.4875,1.6678 4.1367,2.03 1.6491,0.3622 3.2365,1.2789 3.5274,2.0371 0.291,0.7581 2.0965,1.6725 4.0123,2.0319 1.9158,0.3594 3.7049,1.2311 3.9758,1.937 0.2709,0.7059 1.6301,1.569 3.0205,1.9179 1.3904,0.349 3.7203,1.4201 5.1776,2.3804 4.1481,2.7331 6.4123,4.0833 9.6497,5.7545 1.65,0.8517 4.8,2.6244 7,3.9392 2.2,1.3149 5.35,3.0998 7,3.9666 1.65,0.8667 4.8,2.6761 7,4.0208 2.2,1.3447 5.125,3.0068 6.5,3.6937 1.375,0.6868 2.8599,1.8207 3.2997,2.5198 0.4398,0.6991 1.3398,1.2738 2,1.2771 0.6602,0 4.1253,2.0257 7.7003,4.494 3.575,2.4683 7.0766,4.4905 7.7814,4.4939 0.7047,0 1.5404,0.6811 1.857,1.5061 0.3166,0.825 1.0271,1.5 1.5789,1.5 1.4687,0 10.7827,6.192 10.7827,7.1684 0,0.4573 0.4996,0.8316 1.1103,0.8316 1.5457,0 10.8897,6.1509 10.8897,7.1684 0,0.4573 0.6405,0.8316 1.4233,0.8316 0.7828,0 2.7602,1.125 4.3943,2.5 1.6341,1.375 3.3184,2.5 3.7429,2.5 0.4244,0 1.4845,0.6541 2.3556,1.4535 5.0224,4.6092 6.0561,5.4037 7.7352,5.9453 1.0168,0.328 3.5239,2.1382 5.5713,4.0227 2.0474,1.8844 4.6349,3.7158 5.75,4.0698 1.1151,0.3539 2.0274,1.0515 2.0274,1.5504 0,0.4988 1.2375,1.5613 2.75,2.3612 1.5125,0.7998 4.2403,2.8364 6.0617,4.5257 1.8215,1.6892 3.5565,3.0714 3.8557,3.0714 0.2991,0 1.7627,1.0125 3.2523,2.25 1.4896,1.2375 3.9954,3.15 5.5684,4.25 1.573,1.1 3.8458,3.0125 5.0506,4.25 1.2049,1.2375 2.7015,2.25 3.326,2.25 0.6244,0 1.1353,0.3575 1.1353,0.7945 0,0.437 2.3315,2.5725 5.1811,4.7457 6.2305,4.7514 11.4205,9.1609 14.3709,12.2098 1.1975,1.2375 2.4627,2.25 2.8115,2.25 0.3488,0 2.4151,1.6875 4.5918,3.75 2.1767,2.0625 5.2147,4.8064 6.7511,6.0975 7.9757,6.7025 16.3648,14.3149 21.9331,19.9025 3.4257,3.4375 6.7082,6.25 7.2945,6.25 0.5863,0 1.066,0.6891 1.066,1.5313 0,0.8423 0.6744,1.7902 1.4986,2.1065 1.95408,0.7498 26.11368,24.9095 26.86358,26.8635 0.3162,0.8243 1.2642,1.4987 2.1064,1.4987 0.8423,0 1.5314,0.4797 1.5314,1.066 0,0.5863 2.8125,3.8688 6.25,7.2944 5.5876,5.5683 13.2,13.9574 19.9024,21.9331 1.2912,1.5365 4.0351,4.5745 6.0976,6.7512 2.0625,2.1766 3.75,4.2429 3.75,4.5917 0,0.3488 1.0125,1.614 2.25,2.8116 3.0488,2.9503 7.4584,8.1404 12.2098,14.3708 2.1731,2.8496 4.3087,5.1812 4.7457,5.1812 0.437,0 0.7945,0.5109 0.7945,1.1353 0,0.6244 1.0125,2.1211 2.25,3.3259 1.2375,1.2049 3.15,3.4776 4.25,5.0507 1.1,1.573 3.0125,4.0787 4.25,5.5684 1.2375,1.4896 2.25,2.9531 2.25,3.2523 0,0.2992 1.3821,2.0342 3.0714,3.8556 1.6893,1.8215 3.7258,4.5493 4.5257,6.0618 0.7998,1.5125 1.8624,2.75 2.3612,2.75 0.4988,0 1.1965,0.9123 1.5504,2.0274 0.3539,1.115 2.1853,3.7025 4.0698,5.75 1.8845,2.0474 3.6946,4.5545 4.0226,5.5713 0.5416,1.679104 1.3361,2.712804 5.9453,7.735104 0.7995,0.8712 1.4536,1.9312 1.4536,2.3557 0,0.4245 1.125,2.1087 2.5,3.7428 1.375,1.6341 2.5,3.6116 2.5,4.3944 0,0.7828 0.3742,1.4233 0.8316,1.4233 1.0175,0 7.1684,9.3439 7.1684,10.8897 0,0.6106 0.3742,1.1103 0.8316,1.1103 0.9764,0 7.1684,9.314 7.1684,10.7827 0,0.5518 0.675,1.2623 1.5,1.5789 0.825,0.3166 1.5027,1.1522 1.5061,1.857 0,0.7047 2.0256,4.2064 4.4939,7.7814 2.4683,3.57496 4.4906,7.0401 4.4939,7.70027 0,0.66017 0.5781,1.56017 1.2772,2 0.699,0.43983 1.833,1.92469 2.5198,3.29969 0.6868,1.375 2.349,4.3 3.6937,6.5 1.3447,2.2 3.1541,5.35 4.0208,7 0.8667,1.65 2.6517,4.8 3.9665,7 1.3149,2.2 3.0875,5.3499998 3.9393,6.9999998 1.6711,3.23741 3.0214,5.50163998 5.7545,9.64968 0.9602,1.45733 2.0314,3.78727 2.3803,5.17765 0.349,1.3903702 1.2121,2.7495902 1.918,3.0204702 0.7059,0.27089 1.5775,2.06 1.9369,3.97581 0.3594,1.91581 1.2738,3.72133 2.032,4.01227 0.7582,0.29094 1.6749,1.87829 2.0371,3.52745 0.3622,1.64916 1.2757,3.51066 2.03,4.13667 0.7543,0.62601 1.6543,2.42601 2,4 0.3457,1.57399 1.2457,3.37399 2,4 0.7543,0.62601 1.6543,2.42601 2,4 0.3457,1.57399 1.2457,3.37399 2,4 0.7543,0.62601 1.6543,2.42601 2,4 0.3457,1.57399 1.2627,3.38812 2.0378,4.03138 0.7751,0.64327 1.6904,2.6682 2.034,4.49983 0.3437,1.83164 1.1987,3.5505 1.9002,3.81968 0.7015,0.26919 1.5692,2.05514 1.9282,3.96879 0.359,1.91364 1.2687,3.9906 2.0217,4.61547 0.7529,0.62486 1.6529,2.64986 2,4.5 0.347,1.85013 1.2589,3.88501 2.0264,4.52193 0.7674,0.63693 1.6891,2.8969 2.0482,5.02215 0.359,2.12525 1.2494,4.09301 1.9785,4.3728 0.7291,0.27979 1.6351,2.34005 2.0132,4.57834 0.3782,2.2383 1.08,4.06963 1.5596,4.06963 0.4795,0 1.4176,1.9125 2.0846,4.25 0.6669,2.337496 1.7599,4.924996 2.4288,5.749996 0.6689,0.825 1.5414,3.075 1.9388,5 0.3974,1.925 1.2974,4.175 2,5 0.7026,0.825 1.6115,3.0684 2.0198,4.98533 0.4084,1.91694 1.3143,4.39194 2.0132,5.5 0.6989,1.10807 1.5899,3.58967 1.9801,5.51467 0.3902,1.925 1.2854,4.175 1.9893,5 0.7039,0.825 1.589,3.38659 1.9669,5.69243 0.3779,2.30584 1.2779,4.68284 2.0002,5.28222 0.7222,0.59939 1.6251,3.17054 2.0065,5.71368 0.3813,2.54314 1.2892,5.21973 2.0174,5.94796 0.7283,0.72824 1.6471,3.23567 2.0418,5.57206 0.3947,2.33639 1.313,5.1578 2.0407,6.26981 0.7277,1.11201 1.6306,4.04684 2.0065,6.52184 0.376,2.475 1.2587,5.175 1.9617,6 0.703,0.825 1.6089,3.73542 2.0132,6.4676 0.4043,2.73219 1.2823,5.5149 1.9513,6.18382 0.6689,0.66892 1.5252,3.54551 1.9028,6.39242 0.3777,2.84692 1.3127,6.1392 2.0779,7.31618 0.7651,1.17699 1.7148,4.60638 2.1104,7.62087 0.3956,3.01449 1.2767,6.03836 1.9581,6.71973 0.6813,0.68136 1.5655,4.05365 1.9648,7.49398 0.3993,3.44032 1.3022,7.16644 2.0065,8.28027 0.7043,1.11382 1.5809,4.50013 1.9479,7.52513 0.367,3.025 1.276,6.85 2.02,8.5 0.744,1.65 1.6793,5.925 2.0784,9.5 0.3991,3.575 1.2904,7.4 1.9807,8.5 0.6903,1.1 1.575,5.375 1.9659,9.5 0.3909,4.125 1.2939,8.63868 2.0065,10.0304 0.7127,1.39172 1.6188,6.34172 2.0136,11 0.3948,4.65828 1.2856,9.5946 1.9795,10.9696 0.694,1.375 1.5957,6.97661 2.0038,12.44802 0.4082,5.47141 1.3137,11.32141 2.0122,13 0.6986,1.67859 1.58,8.22698 1.9586,14.55198 0.3787,6.325 1.3064,13.66675 2.0616,16.31499 0.7551,2.64824 1.6824,12.43574 2.0605,21.75 0.3781,9.31426 1.0686,16.93501 1.5346,16.93501 0.4659,0 0.8471,33.3 0.8471,74 0,40.7 -0.3812,74 -0.8471,74 -0.466,0 -1.1565,7.6208 -1.5346,16.935 -0.3781,9.3143 -1.3054,19.1018 -2.0605,21.75 -0.7552,2.6483 -1.6829,9.99 -2.0616,16.315 -0.3786,6.325 -1.26,12.8734 -1.9586,14.552 -0.6985,1.6786 -1.604,7.5286 -2.0122,13 -0.4081,5.4714 -1.3098,11.073 -2.0038,12.448 -0.6939,1.375 -1.5847,6.3113 -1.9795,10.9696 -0.3948,4.6583 -1.3009,9.6083 -2.0136,11 -0.7126,1.3917 -1.6156,5.9054 -2.0065,10.0304 -0.3909,4.125 -1.2756,8.4 -1.9659,9.5 -0.6903,1.1 -1.5816,4.925 -1.9807,8.5 -0.3991,3.575 -1.3344,7.85 -2.0784,9.5 -0.744,1.65 -1.653,5.475 -2.02,8.5 -0.367,3.025 -1.2436,6.4113 -1.9479,7.5251 -0.7043,1.1139 -1.6072,4.84 -2.0065,8.2803 -0.3993,3.4403 -1.2835,6.8126 -1.9648,7.494 -0.6814,0.6813 -1.5625,3.7052 -1.9581,6.7197 -0.3956,3.0145 -1.3453,6.4439 -2.1104,7.6209 -0.7652,1.177 -1.7002,4.4692 -2.0779,7.3162 -0.3776,2.8469 -1.2339,5.7235 -1.9028,6.3924 -0.669,0.6689 -1.547,3.4516 -1.9513,6.1838 -0.4043,2.7322 -1.3102,5.6426 -2.0132,6.4676 -0.703,0.825 -1.5857,3.525 -1.9617,6 -0.3759,2.475 -1.2788,5.4098 -2.0065,6.5218 -0.7277,1.112 -1.646,3.9335 -2.0407,6.2699 -0.3947,2.3363 -1.3135,4.8438 -2.0418,5.572 -0.7282,0.7282 -1.6361,3.4048 -2.0174,5.948 -0.3814,2.5431 -1.2843,5.1143 -2.0065,5.7136 -0.7223,0.5994 -1.6223,2.9764 -2.0002,5.2823 -0.3779,2.3058 -1.263,4.8674 -1.9669,5.6924 -0.7039,0.825 -1.5991,3.075 -1.9893,5 -0.3902,1.925 -1.2812,4.4066 -1.9801,5.5147 -0.6989,1.108 -1.6048,3.583 -2.0132,5.5 -0.4083,1.9169 -1.3172,4.1603 -2.0198,4.9853 -0.7026,0.825 -1.6026,3.075 -2,5 -0.3974,1.925 -1.2699,4.175 -1.9388,5 -0.6689,0.825 -1.7619,3.4125 -2.4288,5.75 -0.667,2.3375 -1.6051,4.25 -2.0846,4.25 -0.4796,0 -1.1814,1.8313 -1.5596,4.0696 -0.3781,2.2383 -1.2841,4.2986 -2.0132,4.5784 -0.7291,0.2798 -1.6195,2.2475 -1.9785,4.3728 -0.3591,2.1252 -1.2808,4.3852 -2.0482,5.0221 -0.7675,0.6369 -1.6794,2.6718 -2.0264,4.522 -0.3471,1.8501 -1.2471,3.8751 -2,4.5 -0.753,0.6248 -1.6627,2.7018 -2.0217,4.6154 -0.359,1.9137 -1.2267,3.6996 -1.9282,3.9688 -0.7015,0.2692 -1.5565,1.988 -1.9002,3.8197 -0.3436,1.8316 -1.2589,3.8565 -2.034,4.4998 -0.7751,0.6433 -1.6921,2.4574 -2.0378,4.0314 -0.3457,1.574 -1.2457,3.374 -2,4 -0.7543,0.626 -1.6543,2.426 -2,4 -0.3457,1.574 -1.2457,3.374 -2,4 -0.7543,0.626 -1.6543,2.426 -2,4 -0.3457,1.574 -1.2457,3.374 -2,4 -0.7543,0.626 -1.6678,2.4875 -2.03,4.1367 -0.3622,1.6491 -1.2789,3.2365 -2.0371,3.5274 -0.7582,0.291 -1.6726,2.0965 -2.032,4.0123 -0.3594,1.9158 -1.231,3.7049 -1.9369,3.9758 -0.7059,0.2709 -1.569,1.6301 -1.918,3.0205 -0.3489,1.3904 -1.4201,3.7203 -2.3803,5.1776 -2.7331,4.1481 -4.0834,6.4123 -5.7545,9.6497 -0.8518,1.65 -2.6244,4.8 -3.9393,7 -1.3148,2.2 -3.0998,5.35 -3.9665,7 -0.8667,1.65 -2.6761,4.8 -4.0208,7 -1.3447,2.2 -3.0069,5.12503 -3.6937,6.50003 -0.6868,1.375 -1.8208,2.8599 -2.5198,3.2997 -0.6991,0.4398 -1.2738,1.3398 -1.2772,2 0,0.6602 -2.0256,4.1253 -4.4939,7.7003 -2.4683,3.575 -4.4906,7.0766 -4.4939,7.7814 0,0.7047 -0.6811,1.5404 -1.5061,1.857 -0.825,0.3166 -1.5,1.0271 -1.5,1.5789 0,1.4687 -6.192,10.7827 -7.1684,10.7827 -0.4574,0 -0.8316,0.4996 -0.8316,1.1103 0,1.5457 -6.1509,10.8897 -7.1684,10.8897 -0.4574,0 -0.8316,0.6405 -0.8316,1.4233 0,0.7828 -1.125,2.7602 -2.5,4.3943 -1.375,1.6341 -2.5,3.3184 -2.5,3.7429 0,0.4244 -0.6541,1.4845 -1.4536,2.3556 -4.6092,5.0224 -5.4037,6.0561 -5.9453,7.7352 -0.328,1.0168 -2.1381,3.5239 -4.0226,5.5713 -1.8845,2.0474 -3.7159,4.6349 -4.0698,5.75 -0.3539,1.1151 -1.0516,2.0274 -1.5504,2.0274 -0.4988,0 -1.5614,1.2375 -2.3612,2.75 -0.7999,1.5125 -2.8364,4.2403 -4.5257,6.0617 -1.6893,1.8215 -3.0714,3.5565 -3.0714,3.8557 0,0.2991 -1.0125,1.7627 -2.25,3.2523 -1.2375,1.4896 -3.15,3.9954 -4.25,5.5684 -1.1,1.573 -3.0125,3.8458 -4.25,5.0506 -1.2375,1.2049 -2.25,2.7015 -2.25,3.326 0,0.6244 -0.3575,1.1353 -0.7945,1.1353 -0.437,0 -2.5726,2.3315 -4.7457,5.1811 -4.7514,6.2305 -9.161,11.4205 -12.2098,14.3709 -1.2375,1.1975 -2.25,2.4627 -2.25,2.8115 0,0.3488 -1.6875,2.4151 -3.75,4.5918 -2.0625,2.1767 -4.8064,5.2147 -6.0976,6.7511 -6.7024,7.9757 -14.3148,16.3648 -19.9024,21.9331 -3.4375,3.4257 -6.25,6.7082 -6.25,7.2945 0,0.5863 -0.6891,1.066 -1.5314,1.066 -0.8422,0 -1.7902,0.6744 -2.1064,1.4986 -0.7499,1.9541 -24.9095,26.1137 -26.86358,26.8636 -0.8242,0.3162 -1.4986,1.2642 -1.4986,2.1064 0,0.8423 -0.4797,1.5314 -1.066,1.5314 -0.5863,0 -3.8688,2.8125 -7.2945,6.25 -5.5683,5.5876 -13.9574,13.2 -21.9331,19.9024 -1.5364,1.2912 -4.5744,4.0351 -6.7511,6.0976 -2.1767,2.0625 -4.243,3.75 -4.5918,3.75 -0.3488,0 -1.614,1.0125 -2.8115,2.25 -2.9504,3.0488 -8.1404,7.4584 -14.3709,12.2098 -2.8496,2.1731 -5.1811,4.3087 -5.1811,4.7457 0,0.437 -0.5109,0.7945 -1.1353,0.7945 -0.6245,0 -2.1211,1.0125 -3.326,2.25 -1.2048,1.2375 -3.4776,3.15 -5.0506,4.25 -1.573,1.1 -4.0788,3.0125 -5.5684,4.25 -1.4896,1.2375 -2.9532,2.25 -3.2523,2.25 -0.2992,0 -2.0342,1.3821 -3.8557,3.0714 -1.8214,1.6893 -4.5492,3.7258 -6.0617,4.5257 -1.5125,0.7998 -2.75,1.8624 -2.75,2.3612 0,0.4988 -0.9123,1.1965 -2.0274,1.5504 -1.1151,0.3539 -3.7026,2.1853 -5.75,4.0698 -2.0474,1.8845 -4.5545,3.6946 -5.5713,4.0226 -1.6791,0.5416 -2.7128,1.3361 -7.7352,5.9453 -0.8711,0.7995 -1.9312,1.4536 -2.3556,1.4536 -0.4245,0 -2.1088,1.125 -3.7429,2.5 -1.6341,1.375 -3.6115,2.5 -4.3943,2.5 -0.7828,0 -1.4233,0.3742 -1.4233,0.8316 0,1.0175 -9.344,7.1684 -10.8897,7.1684 -0.6107,0 -1.1103,0.3742 -1.1103,0.8316 0,0.9764 -9.314,7.1684 -10.7827,7.1684 -0.5518,0 -1.2623,0.675 -1.5789,1.5 -0.3166,0.825 -1.1523,1.5027 -1.857,1.5061 -0.7048,0 -4.2064,2.0256 -7.7814,4.4939 -3.575,2.4683 -7.0401,4.4906 -7.7003,4.4939 -0.6602,0 -1.5602,0.5781 -2,1.2772 -0.4398,0.699 -1.9247,1.833 -3.2997,2.5198 -1.375,0.6868 -4.3,2.349 -6.5,3.6937 -2.2,1.3447 -5.35,3.1541 -7,4.0208 -1.65,0.8667 -4.8,2.6517 -7,3.9665 -2.2,1.3149 -5.35,3.0875 -7,3.9393 -3.2374,1.6711 -5.5016,3.0214 -9.6497,5.7545 -1.4573,0.9602 -3.7872,2.0314 -5.1776,2.3803 -1.3904,0.349 -2.7496,1.2121 -3.0205,1.918 -0.2709,0.7059 -2.06,1.5775 -3.9758,1.9369 -1.9158,0.3594 -3.7213,1.2738 -4.0123,2.032 -0.2909,0.7582 -1.8783,1.6749 -3.5274,2.0371 -1.6492,0.3622 -3.5107,1.2757 -4.1367,2.03 -0.626,0.7543 -2.426,1.6543 -4,2 -1.574,0.3457 -3.374,1.2457 -4,2 -0.626,0.7543 -2.426,1.6543 -4,2 -1.574,0.3457 -3.374,1.2457 -4,2 -0.626,0.7543 -2.426,1.6543 -4,2 -1.574,0.3457 -3.3881,1.2627 -4.0314,2.0378 -0.6433,0.7751 -2.6682,1.6904 -4.4998,2.034 -1.8317,0.3437 -3.5505,1.1987 -3.8197,1.9002 -0.2692,0.7015 -2.0551,1.5692 -3.9688,1.9282 -1.9136,0.359 -3.9906,1.2687 -4.6154,2.0217 -0.6249,0.7529 -2.6499,1.6529 -4.5,2 -1.8502,0.347 -3.8851,1.2589 -4.522,2.0264 -0.6369,0.7674 -2.8969,1.6891 -5.0221,2.0482 -2.1253,0.359 -4.093,1.2494 -4.3728,1.9785 -0.2798,0.7291 -2.3401,1.6351 -4.5784,2.0132 -2.2383,0.3782 -4.0696,1.08 -4.0696,1.5596 0,0.4795 -1.9125,1.4176 -4.25,2.0846 -2.3375,0.6669 -4.925,1.7599 -5.75,2.4288 -0.825,0.6689 -3.075,1.5414 -5,1.9388 -1.925,0.3974 -4.175,1.2974 -5,2 -0.825,0.7026 -3.0684,1.6115 -4.9853,2.0198 -1.917,0.4084 -4.392,1.3143 -5.5,2.0132 -1.1081,0.6989 -3.5897,1.5899 -5.5147,1.9801 -1.925,0.3902 -4.175,1.2854 -5,1.9893 -0.825,0.7039 -3.3866,1.589 -5.6924,1.9669 -2.3059,0.3779 -4.6829,1.2779 -5.2823,2.0002 -0.5993,0.7222 -3.1705,1.6251 -5.7136,2.0065 -2.5432,0.3813 -5.2198,1.2892 -5.948,2.0174 -0.7282,0.7283 -3.2357,1.6471 -5.572,2.0418 -2.3364,0.3947 -5.1579,1.313 -6.2699,2.0407 -1.112,0.7277 -4.0468,1.6306 -6.52182,2.0065 -2.475,0.376 -5.175,1.2587 -6,1.9617 -0.825,0.703 -3.7354,1.6089 -6.4676,2.0132 -2.7322,0.4043 -5.5149,1.2823 -6.1838,1.9513 -0.6689,0.6689 -3.5455,1.5252 -6.3924,1.9028 -2.847,0.3777 -6.1392,1.3127 -7.3162,2.0779 -1.177,0.7651 -4.6064,1.7148 -7.6209,2.1104 -3.0145,0.3956 -6.0384,1.2767 -6.7197,1.9581 -0.6814,0.6813 -4.0537,1.5655 -7.494,1.9648 -3.4403,0.3993 -7.1664,1.3022 -8.2803,2.0065 -1.1138,0.7043 -4.5001,1.5809 -7.5251,1.9479 -3.025,0.367 -6.85,1.276 -8.5,2.02 -1.65,0.744 -5.925,1.6793 -9.5,2.0784 -3.575,0.3991 -7.4,1.2904 -8.5,1.9807 -1.1,0.6903 -5.375,1.575 -9.5,1.9659 -4.125,0.3909 -8.6387,1.2939 -10.0304,2.0065 -1.3917,0.7127 -6.3417,1.6188 -11,2.0136 -4.6583,0.3948 -9.5946,1.2856 -10.9696,1.9795 -1.375,0.694 -6.9766,1.5957 -12.448,2.0038 -5.4714,0.4082 -11.3214,1.3137 -13,2.0122 -1.6786,0.6986 -8.227,1.58 -14.552,1.9586 -6.325,0.3787 -13.6667,1.3064 -16.315,2.0616 -2.6482,0.7551 -12.4357,1.6824 -21.75,2.0605 -9.3142,0.3781 -16.935,1.0686 -16.935,1.5346 0,0.4659 -33.3,0.8471 -74,0.8471 -40.7,0 -74,-0.3812 -74,-0.8471 z m 127.5,-29.1662 c 222.4572,-10.9631 430.03112,-95.3014 597.50002,-242.7672 19.9298,-17.5493 63.67018,-61.2897 81.21948,-81.2195 129.7924,-147.39813 211.6681,-328.00463 236.189,-521.00003 10.1572,-79.9442 10.1572,-170.0558 0,-250 -24.5209,-192.99539 -106.3966,-373.601876 -236.189,-520.99996 -17.5493,-19.9299 -61.28968,-63.6702 -81.21948,-81.2196 -147.3981,-129.7923 -328.0046,-211.6681 -521.00002,-236.1889 -79.9442,-10.1572 -170.0558,-10.1572 -250,0 -192.9954007,24.5208 -373.6019,106.3966 -521,236.1889 -19.9298,17.5494 -63.6702,61.2897 -81.2195,81.2196 -129.7924,147.398084 -211.6681,328.00457 -236.189,520.99996 -10.1572,79.9442 -10.1572,170.0558 0,250 12.8742,101.328 40.9864,197.6637 85.0077,291.3067 l 7.9008,16.8067 0.2696,-12.3067 c 0.2244,-10.2473 0.5561,-12.5209 1.982,-13.5866 1.2817,-0.958 1.8087,-3.1845 2.0948,-8.8498 0.3284,-6.5035 0.084,-7.9725 -1.7321,-10.4295 -2.7124,-3.6688 -2.7661,-9.041 -0.1143,-11.4408 1.1,-0.9955 2,-2.8331 2,-4.0836 0,-1.2504 0.6527,-2.9262 1.4505,-3.724 1.6804,-1.6804 9.4211,-3.0627 11.8759,-2.1206 2.0512,0.7871 2.2056,-0.8854 0.233,-2.5225 -0.7924,-0.6576 -1.5799,-2.4002 -1.75,-3.8725 -0.2969,-2.5685 -0.5619,-2.6816 -6.5481,-2.795 -8.8731,-0.1681 -9.2613,-0.6994 -9.2613,-12.6755 0,-10.9799 1.1249,-13.7063 5.655,-13.7063 1.2897,0 2.345,-0.45 2.345,-1 0,-0.55 -1.0929,-1 -2.4286,-1 -5.8035,0 -5.5714,2.9039 -5.5714,-69.7034 l 0,-66.5604 3.7478,-3.5346 c 4.4276,-4.1759 4.389,-5.6047 -0.3329,-12.3227 l -3.4149,-4.8584 0,-15.02 c 0,-13.985 0.1432,-15.14 2.0788,-16.7603 3.9697,-3.3232 6.6363,-11.2402 3.7859,-11.2402 -1.7995,0 -5.8647,-4.905 -5.8647,-7.0763 0,-2.2097 3.4884,-3.9237 7.9856,-3.9237 3.1269,0 3.9624,-2.0519 3.6645,-9 -0.1464,-3.4128 -0.2592,-3.5048 -4.5318,-3.6936 -2.41,-0.1064 -4.9975,-0.4298 -5.75,-0.7186 -1.1344,-0.4353 -1.3683,-9.7556 -1.3683,-54.511 l 0,-53.9859 2.5454,-2.5454 c 1.5786,-1.5786 3.6678,-2.5455 5.5,-2.5455 1.625,0 2.9546,-0.45 2.9546,-1 0,-0.55 -1.2658,-1 -2.8129,-1 -3.4166,0 -8.7558,-5.0755 -7.8426,-7.4553 1.1692,-3.0471 5.8156,-3.5447 33.0981,-3.5447 23.4292,0 27.4951,0.22 28.5967,1.5473 1.0242,1.2341 1.4464,1.2847 2.0858,0.25 0.6486,-1.0498 25.47,-1.3538 130.0882,-1.5937 71.1077,-0.163 130.7492,-0.03 132.5367,0.2953 1.9061,0.3471 3.25,1.1933 3.25,2.0464 0,1.9507 1.0013,1.8351 2.5591,-0.2953 1.2093,-1.6537 9.8642,-1.75 157.317199,-1.75 154.8823,0 156.0485,0.015 157.5034,2 0.8062,1.1 1.7676,3.35 2.1365,5 l 0.6708,3 0.9746,-2.7042 c 0.536,-1.4873 1.8439,-2.9802 2.9065,-3.3174 1.0625,-0.3372 1.9319,-1.2091 1.9319,-1.9374 0,-0.7283 1.0125,-1.5619 2.25,-1.8525 3.371001,-0.7916 60.666101,-0.8633 72.877301,-0.091 l 10.6274,0.6719 1.3726,3.1155 c 1.0703,2.429 2.0887,3.1844 4.6227,3.4288 2.881,0.2777 3.25,0.03 3.25,-2.1786 0,-5.8192 -1.9172,-5.6348 58.5714,-5.6348 l 55.4286,0 0,237.559 c 0,158.1181 0.3344,237.3524 1,236.941 0.6593,-0.4075 1,-50.6771 1,-147.559 l 0,-146.941 17.75,-0.048 c 18.6539,-0.051 74.5123,-0.5648 82.3082,-0.7577 3.13,-0.077 5.1061,-0.7181 6.3068,-2.0449 1.9628,-2.1688 5.3908,-1.8054 7.3043,0.7743 1.061,1.4304 35.7784,1.5765 374.66662,1.5765 205.42338,0 373.87218,-0.375 374.33058,-0.8333 0.4584,-0.4583 0.8335,-73.1986 0.8335,-161.645 0,-146.68826 -0.142,-160.97458 -1.6171,-162.66668 -1.3132,-1.50636 -1.7344,-5.40964 -2.2413,-20.76726 -0.4383,-13.27884 -1.0269,-19.53411 -1.9762,-21 -0.7437,-1.14827 -1.6484,-5.65327 -2.0106,-10.01112 -0.3696,-4.44573 -1.2683,-8.61536 -2.0478,-9.5 -0.7641,-0.86715 -1.7015,-3.60164 -2.0832,-6.07664 -0.3817,-2.475 -1.5557,-6.20136 -2.6089,-8.28079 -1.0532,-2.07944 -1.9149,-5.16143 -1.9149,-6.84887 0,-1.68745 -0.6334,-4.48609 -1.4076,-6.21921 -0.7742,-1.73312 -1.6361,-5.09856 -1.9153,-7.47875 -0.5628,-4.7978 -2.787,-7.90137 -5.9962,-8.36651 -1.9175,-0.27794 -2.1134,-0.95813 -2.1455,-7.45015 -0.025,-5.10575 -0.4964,-7.67379 -1.6511,-9 -0.8886,-1.02065 -1.9362,-3.20572 -2.3279,-4.85572 -0.3917,-1.65 -1.2953,-3.675 -2.0079,-4.5 -0.7126,-0.825 -1.84,-3.19533 -2.5054,-5.26739 -0.7855,-2.44627 -2.2325,-4.29631 -4.1264,-5.27568 -2.2659,-1.17226 -2.9167,-2.19704 -2.9167,-4.59341 0,-3.02335 -5.4837,-12.86402 -7.1684,-12.86402 -0.4574,0 -0.8316,-0.61364 -0.8316,-1.36364 0,-0.75 -1.0305,-2.4375 -2.29,-3.75 -1.2595,-1.3125 -3.1212,-3.73636 -4.1371,-5.38636 -1.0159,-1.65 -3.5845,-4.8 -5.7081,-7 -2.1237,-2.2 -6.8422,-7.2625 -10.4857,-11.25 -3.6434,-3.9875 -6.9967,-7.25 -7.4517,-7.25 -1.3523,0 -9.7974,-5.97834 -11.164,-7.90308 -0.6949,-0.97874 -2.3884,-2.37435 -3.7634,-3.10136 -1.375,-0.72701 -3.8692,-2.60944 -5.5426,-4.18316 -1.6735,-1.57373 -4.4743,-3.63782 -6.2241,-4.58686 -10.1609,-5.511106 -15.6952,-8.225536 -16.7706,-8.225536 -0.6698,0 -1.7814,-0.67903 -2.4701,-1.50895 -0.6888,-0.82992 -2.9661,-1.78299 -5.0607,-2.11794 -2.0947,-0.33494 -4.0401,-1.21261 -4.3232,-1.95037 -0.2831,-0.73776 -2.7586,-1.63905 -5.5011,-2.00285 -2.7425,-0.3638 -5.2029,-1.22579 -5.4676,-1.91553 -0.2646,-0.68974 -3.0872,-1.57967 -6.2723,-1.97762 -3.2164,-0.40187 -6.2715,-1.38048 -6.8716,-2.20113 -0.6699,-0.91619 -3.5339,-1.68782 -7.5382,-2.03095 -3.82748,-0.32798 -7.21348,-1.21348 -8.31288,-2.17402 -1.6863,-1.47327 -11.9292,-1.62064 -112.645,-1.62064 -100.5879,0 -110.9608,0.14883 -112.645,1.61618 -1.0579,0.92168 -4.6157,1.88979 -8.2795,2.2529 -3.5334,0.3502 -7.1334,1.25537 -8,2.0115 -0.8665,0.75612 -3.7392,1.68632 -6.3837,2.0671 -2.7202,0.39168 -5.0466,1.31333 -5.357,2.12233 -0.3018,0.78649 -1.4836,1.42999 -2.6261,1.42999 -1.9572,0 -5.9146,1.56543 -15.2087,6.01619 -2.2,1.05354 -5.125,2.39157 -6.5,2.97341 -1.375,0.58184 -4.3,2.14128 -6.5,3.46543 -2.2,1.324136 -5.4625,3.090486 -7.25,3.925216 -1.7875,0.83474 -3.25,1.99066 -3.25,2.56872 0,0.57807 -0.4996,1.05103 -1.1103,1.05103 -1.5457,0 -10.8897,6.1509 -10.8897,7.16841 0,0.45738 -0.4697,0.83159 -1.0438,0.83159 -2.4948,0 -21.8039,17.98559 -30.124,28.05919 -2.0173,2.44245 -4.8298,5.85577 -6.25,7.58517 -1.4202,1.72939 -2.5822,3.64189 -2.5822,4.25 0,0.6081 -0.4611,1.10564 -1.0248,1.10564 -0.5636,0 -1.4122,1.0125 -1.8858,2.25 -0.4735,1.2375 -2.5016,4.725 -4.5067,7.75 -2.0051,3.025 -3.8971,6.47994 -4.2044,7.67764 -0.3074,1.19771 -1.1684,2.41156 -1.9134,2.69745 -0.745,0.28589 -1.6545,2.11845 -2.021,4.07235 -0.3666,1.95391 -1.0483,3.55256 -1.515,3.55256 -0.4668,0 -1.3943,1.9125 -2.0613,4.25 -0.6669,2.3375 -1.8292,4.98169 -2.5829,5.87597 -0.7536,0.89429 -1.6337,3.24958 -1.9557,5.23399 -0.322,1.98441 -1.1936,4.11268 -1.9368,4.7295 -0.7432,0.61682 -1.6486,3.36234 -2.0119,6.10117 -0.3633,2.73882 -1.2448,5.20388 -1.9589,5.4779 -0.7266,0.27884 -1.5982,2.99343 -1.9794,6.16484 -0.3746,3.11665 -1.31312,6.38906 -2.08562,7.27203 -0.7726,0.88296 -1.6893,4.70796 -2.0372,8.5 -0.3479,3.79203 -1.2716,7.88076 -2.0526,9.08606 -0.847,1.3073 -1.6525,6.14878 -1.9964,12 -0.3472,5.90677 -1.1467,10.68638 -2.01,12.01531 -1.1022,1.69673 -1.5501,7.70606 -1.9377,26 l -0.5041,23.79323 -3.6592,3.21058 -3.6592,3.21058 -0.1794,50.28942 c -0.2067,57.95272 -0.4897,76.93712 -1.0625,71.28942 -0.2232,-2.2 -1.0136,-4.675 -1.7564,-5.5 -0.7428,-0.825 -1.6602,-4.425 -2.0385,-8 -0.3784,-3.575 -1.2699,-7.43187 -1.9812,-8.57083 -0.7113,-1.13896 -1.6084,-4.73896 -1.9935,-8 -0.3852,-3.26104 -1.3109,-6.90023 -2.0571,-8.08708 -0.7463,-1.18686 -1.6642,-5.15778 -2.0398,-8.82428 -0.3757,-3.6665 -1.2382,-7.22159 -1.9168,-7.9002 -0.6787,-0.67861 -1.5557,-4.13269 -1.949,-7.67572 -0.3933,-3.54304 -1.3538,-7.44808 -2.1343,-8.67787 -0.7806,-1.22979 -1.6982,-5.05479 -2.0392,-8.5 -0.341,-3.44521 -1.294,-7.03993 -2.1178,-7.98826 -0.9092,-1.04662 -1.6857,-4.58361 -1.9757,-9 -0.2628,-4.00167 -1.0868,-8.24682 -1.8311,-9.43367 -0.7442,-1.18686 -1.6605,-5.15778 -2.0361,-8.82428 -0.3757,-3.6665 -1.2058,-7.19544 -1.8448,-7.84209 -0.639,-0.64664 -1.5859,-3.85889 -2.1043,-7.13832 -0.8119,-5.13637 -1.2889,-6.0579 -3.4425,-6.65032 -1.375,-0.37825 -11.1879,-0.73258 -21.8064,-0.7874 l -19.3063,-0.0997 -2.8235,3.09124 c -2.3171,2.53694 -2.948,4.35631 -3.5186,10.1464 -0.3823,3.88035 -1.2673,7.62727 -1.9665,8.32651 -0.6992,0.69923 -1.5604,4.69147 -1.9138,8.87164 -0.3533,4.18016 -1.2799,8.60468 -2.059,9.83226 -0.7791,1.22757 -1.7324,5.15695 -2.1184,8.73195 -0.386,3.575 -1.2757,7.175 -1.9771,8 -0.7015,0.825 -1.5972,4.61361 -1.9906,8.41914 -0.3934,3.80552 -1.2912,7.49515 -1.9953,8.19917 -0.704,0.70403 -1.6065,4.76477 -2.0057,9.02387 -0.3991,4.2591 -1.3053,8.66947 -2.0138,9.80082 -0.7085,1.13135 -1.6008,4.2696 -1.9829,6.97389 -0.3821,2.7043 -1.2803,5.8543 -1.996,7 -0.7157,1.14571 -1.6062,4.95705 -1.9788,8.46964 -0.3726,3.51259 -1.2576,6.96667 -1.9667,7.67573 -0.7091,0.70905 -1.5965,4.28904 -1.9722,7.95554 -0.3756,3.6665 -1.3759,7.7239 -2.2228,9.0165 -2.1643,3.3031 -1.4335,6.7322 1.6144,7.575 3.8045,1.0521 25.5373,1.0171 28.3323,-0.045 2.0311,-0.7723 2.5899,-1.8629 3.19,-6.2258 0.4001,-2.9093 1.2957,-6.2005 1.9902,-7.3138 0.6945,-1.1133 1.5676,-4.8981 1.9402,-8.4107 0.3726,-3.51262 1.2682,-6.97725 1.9902,-7.69921 0.7219,-0.72196 1.6204,-4.82302 1.9966,-9.11347 0.3762,-4.29045 1.2851,-9.15082 2.0197,-10.80082 0.7346,-1.65 1.6609,-5.44873 2.0584,-8.44162 0.3975,-2.99289 1.2754,-5.99424 1.9508,-6.66966 0.6754,-0.67542 1.4929,-4.38652 1.8165,-8.2469 0.3236,-3.86037 1.2423,-8.05903 2.0414,-9.33034 0.7991,-1.27131 1.766,-5.68648 2.1485,-9.81148 0.3825,-4.125 1.1384,-8.03373 1.6797,-8.68607 0.5414,-0.65233 1.3395,-2.45233 1.7737,-4 0.6526,-2.32602 0.9075,-1.60019 1.4702,4.18607 0.3743,3.85 1.3227,8.35 2.1075,10 0.7848,1.65 1.7176,5.925 2.0729,9.5 0.3553,3.575 1.2256,7.42823 1.9339,8.56273 0.7084,1.13451 1.6047,5.18451 1.9918,9 0.387,3.8155 1.3151,7.90833 2.0623,9.09518 0.7473,1.18686 1.6592,5.23686 2.0266,9 0.3674,3.76315 1.2481,7.51709 1.9571,8.34209 0.709,0.825 1.6076,4.75505 1.9969,8.73344 0.3892,3.97839 1.2893,7.71606 2.0001,8.30596 0.7108,0.5899 1.5961,4.3135 1.9672,8.2746 0.4657,4.9694 1.2997,7.9744 2.6904,9.694 1.9446,2.4043 2.4995,2.5034 15.7607,2.8151 11.7079,0.2751 13.989,0.079 15.3897,-1.3215 1.526,-1.526 1.6445,-1.3891 1.6445,1.8987 l 0,3.5431 -30.75,0.2783 c -16.9125,0.1531 -82.1625,0.1548 -145,0 l -114.25,-0.2745 0,-468.1027362 0,-468.1027038 -4.75,0.5612 c -2.6125,0.3087 -7.675,1.0059 -11.25,1.5493 -3.575,0.5434 -19.3198,1.308 -34.9884,1.6991 -20.6674,0.5159 -29.0407,1.0686 -30.5,2.0131 -1.3022,0.8427 -7.6538,1.5453 -18.0116,1.9924 -10.8211,0.467 -16.4855,1.1116 -17.5,1.9913 -0.9452,0.8197 -6.1233,1.5659 -14,2.0175 -6.875,0.3942 -12.7983,1.178 -13.1629,1.7417 -0.7923,1.2251 -9.155,2.5145 -16.9647,2.6158 -3.5835,0.046 -6.0586,0.5924 -6.8143,1.503 -0.7707,0.9287 -4.3132,1.6745 -10.106,2.1277 -5.2594,0.4114 -9.3574,1.2257 -9.9871,1.9846 -0.619,0.7458 -4.721,1.5911 -9.7574,2.0106 -5.2835,0.4401 -9.085001,1.2439 -9.698501,2.0507 -0.5646,0.7425 -4.0924,1.62 -8.0091,1.9924 -3.85,0.366 -7.675,1.2476 -8.5,1.9592 -0.825,0.7115 -4.425,1.6097 -8,1.9959 -3.575,0.3862 -7.1939,1.3053 -8.0421,2.0424 -0.8481,0.7371 -4.2231,1.6399 -7.5,2.0061 -3.2768,0.3663 -6.6329,1.2413 -7.4579,1.9443 -0.825,0.7031 -3.75,1.5984 -6.5,1.9896 -2.75,0.3912 -5.675,1.2899 -6.5,1.9971 -0.825,0.7073 -4.074,1.6024 -7.2201,1.9892 -3.146,0.3867 -6.215,1.2996 -6.82,2.0285 -0.6049,0.7289 -3.6543,1.6445 -6.7764,2.0345 -3.1221,0.3901 -6.1281,1.3157 -6.6799997,2.0569 -0.5519,0.7412 -3.2535,1.6433 -6.0035,2.0048 -2.75000001,0.3614 -5.3523,1.2507 -5.7829,1.9763 -0.4305,0.7255 -3.0563,1.6207 -5.8351,1.9893 -2.7788003,0.3686 -5.2693003,1.2356 -5.5345003,1.9266 -0.2651,0.691 -2.44,1.55 -4.833,1.9089 -2.393,0.3588 -4.8523,1.2565 -5.465,1.9947 -0.6127,0.7383 -3.0877,1.6383 -5.5,2 -2.4123,0.3618 -4.9202,1.3015 -5.5732,2.0883 -0.653,0.7868 -3.3625,1.7191 -6.0211,2.0718 -2.6587,0.3527 -5.0503,1.205 -5.3147,1.8942 -0.2645,0.6891 -2.0465,1.5466 -3.9602,1.9056 -1.9136,0.359 -3.9972,1.2767 -4.6301,2.0394 -0.633,0.7626 -3.3445,1.6883 -6.0256,2.057 -2.6811,0.3688 -5.1098,1.2831 -5.3971,2.0318 -0.2873,0.7487 -2.0899,1.6554 -4.0057,2.0148 -1.9158,0.3594 -3.7009,1.2205 -3.9668,1.9136 -0.266,0.6931 -2.2637,1.5449 -4.4394,1.8928 -2.1757,0.3479 -4.4902,1.2764 -5.1433,2.0633 -0.6531,0.7869 -2.9929,1.7358 -5.1995,2.1086 -2.2066,0.3728 -4.241,1.2744 -4.5208,2.0035 -0.2798,0.7292 -2.2382,1.6179 -4.352,1.975 -2.113799,0.3572 -4.067699,1.2339 -4.341799,1.9484 -0.2742,0.7145 -2.066,1.5932 -3.9818,1.9526 -1.9158,0.3594 -3.7158,1.2594 -4,2 -0.2842,0.7406 -2.0842,1.6406 -4,2 -1.9158,0.3594 -3.7158,1.2594 -4,2 -0.2842,0.7406 -2.0842,1.6406 -4,2 -1.9158,0.3594 -3.7158,1.2594 -4,2 -0.2842,0.7406 -2.0842,1.6406 -4,2 -1.9158,0.3594 -3.7158,1.2594 -4,2 -0.2842,0.7406 -2.1277,1.6487 -4.0966,2.0181 -2.0954,0.3964 -3.5798,1.2593 -3.5798,2.0842 0,0.8201 -1.4694,1.6851 -3.5141,2.0687 -1.9327,0.3625 -3.8452,1.1799 -4.25,1.8163 -0.4047,0.6364 -1.8609,1.7322 -3.2359,2.435 -6.6611,3.4047 -8.5577,4.5787 -9.2359,5.7171 -0.4048,0.6793 -2.2739,1.5236 -4.1535,1.8762 -1.8796,0.3526 -3.6555,1.2615 -3.9465,2.0196 -0.2909,0.7582 -1.8718,1.6735 -3.513,2.0339 -1.6412,0.3605 -3.2325,1.303 -3.5362,2.0943 -0.3037,0.7914 -1.1715,1.4389 -1.9285,1.4389 -0.7571,0 -2.1909,0.9 -3.1864,2 -0.9955,1.1 -2.5745,2 -3.509,2 -0.9344,0 -2.9129,1.125 -4.3965,2.5 -1.4837,1.375 -3.1426,2.5 -3.6865,2.5 -1.2787,0 -7.1691,4.1267 -8.2077,5.75 -0.4398,0.6875 -1.6773,1.25 -2.75,1.25 -1.0727,0 -2.8503,0.9 -3.9503,2 -1.1,1.1 -2.4342,2 -2.9648,2 -0.5307,0 -1.4185,0.8477 -1.9729,1.8837 -0.5545,1.036 -2.5953,2.1813 -4.5352,2.5453 -2.1165,0.397 -3.5271,1.2435 -3.5271,2.1163 0,0.8001 -0.6592,1.4547 -1.4648,1.4547 -0.8057,0 -1.9465,0.9 -2.5352,2 -0.5887,1.1 -1.9545,2 -3.0352,2 -1.0806,0 -2.8648,0.9 -3.9648,2 -1.1,1.1 -2.4342,2 -2.9648,2 -0.5307,0 -1.4212,0.8527 -1.9789,1.8949 -0.5578,1.0421 -2.3736,2.3687 -4.0352,2.9479 -1.6616,0.5793 -3.0211,1.4778 -3.0211,1.9968 0,0.519 -1.125,1.226 -2.5,1.5711 -1.375,0.3451 -2.5,1.2939 -2.5,2.1084 0,0.8145 -0.6053,1.4809 -1.345,1.4809 -0.7398,0 -2.1595,0.9 -3.155,2 -0.9955,1.1 -2.377,2 -3.07,2 -1.251,0 -2.5834,1.0285 -10.7055,8.2628 -2.3235,2.0696 -5.237,4.0309 -6.4745,4.3585 -1.2375,0.3275 -2.25,1.0064 -2.25,1.5086 0,0.5021 -1.125,1.4256 -2.5,2.0521 -1.375,0.6265 -2.5,1.7418 -2.5,2.4786 0,0.7367 -0.5109,1.3394 -1.1353,1.3394 -0.6245,0 -2.136,1.0125 -3.359,2.25 -3.1591,3.1965 -6.7246,5.75 -8.0288,5.75 -0.6139,0 -2.0944,1.125 -3.29,2.5 -1.1955,1.375 -2.6267,2.5 -3.1803,2.5 -0.5536,0 -1.0066,0.675 -1.0066,1.5 0,0.825 -0.5625,1.5045 -1.25,1.5099 -0.6875,0.01 -2.825,1.8009 -4.75,3.9901 -1.925,2.1892 -4.0766,3.9848 -4.7814,3.9902 -0.7048,0.01 -1.5246,0.6436 -1.8218,1.4183 -0.2973,0.7746 -1.8582,1.9542 -3.4687,2.6213 -1.6104,0.6671 -2.9281,1.6179 -2.9281,2.113 0,0.4951 -1.125,1.4127 -2.5,2.0392 -1.375,0.6265 -2.5,1.6893 -2.5,2.3619 0,0.6726 -0.9,1.4582 -2,1.7459 -1.1,0.2876 -2,1.1876 -2,2 0,0.8123 -0.9,1.7123 -2,2 -1.1,0.2876 -2,1.2401 -2,2.1166 0,0.8765 -0.432,1.5936 -0.96,1.5936 -2.5027,0 -67.04,64.4251 -67.04,66.9235 0,0.4638 -0.9,1.0786 -2,1.3663 -1.1,0.2876 -2,1.1876 -2,2 0,0.8123 -0.9,1.7123 -2,2 -1.1,0.2876 -2,1.2401 -2,2.1166 0,0.8765 -0.6028,1.5936 -1.3395,1.5936 -0.7367,0 -1.8521,1.125 -2.4786,2.5 -0.6264,1.375 -1.5441,2.5 -2.0391,2.5 -0.4951,0 -1.446,1.3177 -2.113,2.9282 -0.6671,1.6105 -1.8467,3.1713 -2.6214,3.4686 -0.7746,0.2973 -1.4128,1.1171 -1.4182,1.8219 -0.01,0.7047 -1.801,2.8563 -3.9902,4.7813 -2.1892,1.925 -3.9848,4.0625 -3.9902,4.75 0,0.6875 -0.6848,1.25 -1.5098,1.25 -0.825,0 -1.5,0.453 -1.5,1.0066 0,0.5537 -1.125,1.9848 -2.5,3.1804 -1.375,1.1955 -2.5,2.676 -2.5,3.29 0,1.3041 -2.5535,4.8696 -5.75,8.0287 -1.2375,1.223 -2.25,2.7346 -2.25,3.359 0,0.6244 -0.6028,1.1353 -1.3395,1.1353 -0.7367,0 -1.8521,1.125 -2.4786,2.500004 -0.6264,1.375 -1.5499,2.5 -2.0521,2.5 -0.5021,0 -1.181,1.0125 -1.5086,2.25 -0.3276,1.2375 -2.2888,4.1511 -4.3584,6.4746 -7.2344,8.122 -8.2628,9.4545 -8.2628,10.7054 0,0.693 -0.9,2.0745 -2,3.07 -1.1,0.9955 -2,2.4153 -2,3.155 0,0.7398 -0.6664,1.345 -1.481,1.345 -0.8145,0 -1.7633,1.125 -2.1084,2.5 -0.3451,1.375 -1.052,2.5 -1.571,2.5 -0.519,0 -1.4176,1.3595 -1.9968,3.0211 -0.5792,1.6617 -1.9058,3.4775 -2.948,4.0352 -1.0421,0.5578 -1.8948,1.6251 -1.8948,2.3719 0,0.7468 -0.7074,1.6293 -1.572,1.9611 -3.1158,1.1956 30.4829,-44.8053 51.0465,-69.889304 28.2839,-34.5012 73.5304,-81.546 105.5255,-109.7195 100.5937,-88.5784 214.7099,-153.8474 340.499999,-194.7497 192.560301,-62.6136 400.439701,-62.6136 593.000001,0 125.79012,40.9023 239.90632,106.1713 340.50002,194.7497 19.9298,17.5493 63.67018,61.2897 81.21948,81.2195 105.1316,119.392244 177.7194,258.41803 214.7746,411.35296 41.7921,172.48495 34.8549,353.37108 -20.0248,522.14708 -40.9023,125.7901 -106.1714,239.90635 -194.7498,340.50005 -17.5493,19.9298 -61.28968,63.6702 -81.21948,81.2195 -119.3922,105.1316 -258.418,177.7194 -411.35292,214.7746 -278.2214,67.4114 -573.329901,6.6084 -801.6938,-165.1777 -39.548,-29.7498 -66.0057,-52.7979 -102.4888,-89.2809 -36.4928,-36.4929 -59.9374,-63.4059 -88.8854,-102.0355 -18.3903,-24.5409 -28.1265,-38.6473 -26.1511,-37.8892 0.8646,0.3317 1.572,1.2142 1.572,1.961 0,0.7468 0.8527,1.8142 1.8948,2.3719 1.0422,0.5577 2.3688,2.3736 2.948,4.0352 0.5792,1.6616 1.4778,3.0211 1.9968,3.0211 0.519,0 1.2259,1.125 1.571,2.5 0.3451,1.375 1.2939,2.5 2.1084,2.5 0.8146,0 1.481,0.6053 1.481,1.345 0,0.7398 0.9,2.1595 2,3.155 1.1,0.9955 2,2.377 2,3.07 0,1.251 1.0284,2.5834 8.2628,10.7055 2.0696,2.3235 4.0308,5.237 4.3584,6.4745 0.3276,1.2375 1.0065,2.25 1.5086,2.25 0.5022,0 1.4257,1.125 2.0521,2.5 0.6265,1.375 1.7419,2.5 2.4786,2.5 0.7367,0 1.3395,0.5109 1.3395,1.1353 0,0.6245 1.0125,2.136 2.25,3.359 3.1965,3.1591 5.75,6.7246 5.75,8.0288 0,0.6139 1.125,2.0944 2.5,3.29 1.375,1.1955 2.5,2.6266 2.5,3.1803 0,0.5536 0.675,1.0066 1.5,1.0066 0.825,0 1.5044,0.5625 1.5098,1.25 0.01,0.6875 1.801,2.825 3.9902,4.75 2.1892,1.925 3.9848,4.0766 3.9902,4.7814 0,0.7047 0.6436,1.5246 1.4182,1.8218 0.7747,0.2973 1.9543,1.8582 2.6214,3.4687 0.667,1.6104 1.6179,2.9281 2.113,2.9281 0.495,0 1.4127,1.125 2.0391,2.5 0.6265,1.375 1.7419,2.5 2.4786,2.5 0.7367,0 1.3395,0.7171 1.3395,1.5936 0,0.8765 0.9,1.829 2,2.1167 1.1,0.2876 2,1.1876 2,2 0,0.8123 0.9,1.7123 2,2 1.1,0.2876 2,0.9025 2,1.3663 0,2.4983 64.5373,66.9234 67.04,66.9234 0.528,0 0.96,0.7171 0.96,1.5936 0,0.8765 0.9,1.829 2,2.1167 1.1,0.2876 2,1.1876 2,2 0,0.8123 0.9,1.7123 2,2 1.1,0.2876 2,1.0732 2,1.7458 0,0.6726 1.125,1.7355 2.5,2.3619 1.375,0.6265 2.5,1.5442 2.5,2.0392 0,0.4951 1.3177,1.446 2.9281,2.113 1.6105,0.6671 3.1714,1.8467 3.4687,2.6214 0.2972,0.7746 1.117,1.4128 1.8218,1.4182 0.7048,0.01 2.8564,1.801 4.7814,3.9902 1.925,2.1892 4.0625,3.9848 4.75,3.9902 0.6875,0.01 1.25,0.6848 1.25,1.5098 0,0.825 0.453,1.5 1.0066,1.5 0.5536,0 1.9848,1.125 3.1803,2.5 1.1956,1.375 2.6761,2.5 3.29,2.5 1.3042,0 4.8697,2.5535 8.0288,5.75 1.223,1.2375 2.7345,2.25 3.359,2.25 0.6244,0 1.1353,0.6028 1.1353,1.3395 0,0.7367 1.125,1.8521 2.5,2.4785 1.375,0.6265 2.5,1.55 2.5,2.0522 0,0.5021 1.0125,1.181 2.25,1.5086 1.2375,0.3276 4.151,2.2888 6.4745,4.3584 8.1221,7.2344 9.4545,8.2628 10.7055,8.2628 0.693,0 2.0745,0.9 3.07,2 0.9955,1.1 2.4152,2 3.155,2 0.7397,0 1.345,0.6664 1.345,1.4809 0,0.8146 1.125,1.7634 2.5,2.1085 1.375,0.3451 2.5,1.052 2.5,1.571 0,0.519 1.3595,1.4176 3.0211,1.9968 1.6616,0.5792 3.4774,1.9058 4.0352,2.948 0.5577,1.0421 1.4482,1.8948 1.9789,1.8948 0.5306,0 1.8648,0.9 2.9648,2 1.1,1.1 2.8842,2 3.9648,2 1.0807,0 2.4465,0.9 3.0352,2 0.5887,1.1 1.7295,2 2.5352,2 0.8056,0 1.4648,0.6546 1.4648,1.4547 0,0.8729 1.4106,1.7193 3.5271,2.1164 1.9399,0.3639 3.9807,1.5093 4.5352,2.5453 0.5544,1.036 1.4422,1.8836 1.9729,1.8836 0.5306,0 1.8648,0.9 2.9648,2 1.1,1.1 2.8776,2 3.9503,2 1.0727,0 2.3102,0.5625 2.75,1.25 1.0386,1.6234 6.929,5.75 8.2077,5.75 0.5439,0 2.2028,1.125 3.6865,2.5 1.4836,1.375 3.4621,2.5 4.3965,2.5 0.9345,0 2.5135,0.9 3.509,2 0.9955,1.1 2.4293,2 3.1864,2 0.757,0 1.6248,0.6475 1.9285,1.4389 0.3037,0.7914 1.895,1.7338 3.5362,2.0943 1.6412,0.3605 3.2221,1.2757 3.513,2.0339 0.291,0.7582 2.0669,1.667 3.9465,2.0196 1.8796,0.3527 3.7487,1.197 4.1535,1.8763 0.6782,1.1383 2.5748,2.3123 9.2359,5.717 1.375,0.7029 2.8312,1.7986 3.2359,2.435 0.4048,0.6364 2.3173,1.4538 4.25,1.8164 2.0447,0.3836 3.5141,1.2485 3.5141,2.0686 0,0.825 1.4844,1.6879 3.5798,2.081 1.9689,0.3693 3.8124,1.2775 4.0966,2.0181 0.2842,0.7406 2.0842,1.6406 4,2 1.9158,0.3594 3.7158,1.2594 4,2 0.2842,0.7406 2.0842,1.6406 4,2 1.9158,0.3594 3.7158,1.2594 4,2 0.2842,0.7406 2.0842,1.6406 4,2 1.9158,0.3594 3.7158,1.2594 4,2 0.2842,0.7406 2.0842,1.6406 4,2 1.9158,0.3594 3.7076,1.238 3.9818,1.9525 0.2741,0.7145 2.228,1.5913 4.341799,1.9484 2.1138,0.3571 4.0722,1.2459 4.352,1.975 0.2798,0.7291 2.3142,1.6307 4.5208,2.0035 2.2066,0.3728 4.5464,1.3217 5.1995,2.1086 0.6531,0.7869 2.9676,1.7155 5.1433,2.0634 2.1757,0.3479 4.1734,1.1996 4.4394,1.8927 0.2659,0.6931 2.051,1.5543 3.9668,1.9137 1.9158,0.3594 3.7184,1.266 4.0057,2.0147 0.2873,0.7488 2.716,1.663 5.3971,2.0318 2.6811,0.3687 5.3926,1.2944 6.0256,2.0571 0.6329,0.7626 2.7165,1.6803 4.6301,2.0393 1.9137,0.359 3.6957,1.2166 3.9602,1.9057 0.2644,0.6891 2.656,1.5415 5.3147,1.8942 2.6586,0.3526 5.3681,1.2849 6.0211,2.0717 0.653,0.7868 3.1609,1.7266 5.5732,2.0883 2.4123,0.3617 4.8873,1.2617 5.5,2 0.6127,0.7383 3.072,1.6359 5.465,1.9947 2.393,0.3589 4.5679,1.2179 4.833,1.9089 0.2652,0.6911 2.7557,1.558 5.5345003,1.9267 2.7788,0.3686 5.4046,1.2638 5.8351,1.9893 0.4306,0.7255 3.03289999,1.6148 5.7829,1.9763 2.75,0.3614 5.4516,1.2636 6.0035,2.0047 0.5518997,0.7412 3.5578997,1.6668 6.6799997,2.0569 3.1221,0.3901 6.1715,1.3056 6.7764,2.0345 0.605,0.7289 3.674,1.6418 6.82,2.0286 3.1461,0.3867 6.3951,1.2819 7.2201,1.9891 0.825,0.7073 3.75,1.606 6.5,1.9971 2.75,0.3912 5.675,1.2865 6.5,1.9896 0.825,0.7031 4.1811,1.578 7.4579,1.9443 3.2769,0.3663 6.6519,1.269 7.5,2.0061 0.8482,0.7372 4.4671,1.6562 8.0421,2.0424 3.575,0.3862 7.175,1.2844 8,1.996 0.825,0.7115 4.65,1.5932 8.5,1.9592 3.9167,0.3723 7.4445,1.2499 8.0091,1.9923 0.6135,0.8068 4.415001,1.6106 9.698501,2.0507 5.0364,0.4196 9.1384,1.2648 9.7574,2.0107 0.6297,0.7588 4.7277,1.5731 9.9871,1.9845 5.7928,0.4532 9.3353,1.199 10.106,2.1277 0.7557,0.9106 3.2308,1.4565 6.8143,1.503 7.8097,0.1013 16.1724,1.3908 16.9647,2.6158 0.3646,0.5638 6.2879,1.3475 13.1629,1.7417 7.8767,0.4516 13.0548,1.1978 14,2.0175 1.0145,0.8798 6.6789,1.5244 17.5,1.9914 10.3578,0.447 16.7094,1.1496 18.0116,1.9924 1.4593,0.9445 9.8326,1.4971 30.5,2.013 15.6686,0.3912 31.4134,1.1558 34.9884,1.6992 3.575,0.5433 8.6375,1.2405 11.25,1.5492 l 4.75,0.5613 0,-252.1273 0,-252.12725 -53.4286,0 c -47.2381,0 -53.6106,-0.1821 -55,-1.5714 -1.4142,-1.4143 -1.5714,-16.2165 -1.5714,-148 l 0,-146.4286 -44.7716,0 c -41.4068,0 -45.2962,-0.1471 -51.750001,-1.9578 -6.5608,-1.8406 -7.0558,-1.8555 -8.2709,-0.25 -1.192,1.575 -6.4981,1.7317 -68.234,2.0157 l -66.9415,0.308 -0.266,118.2886 c -0.2215,98.4998 -0.4956,118.5652 -1.6384,119.942 -1.2454,1.5004 -6.3407,1.6535 -55.027499,1.6535 -46.9436,0 -53.9331,-0.1947 -55.8776,-1.5567 l -2.2225,-1.5567 0,-118.3808 0,-118.3808 -46.951,-0.3125 c -35.3912,-0.2356 -47.2526,-0.6144 -48.1762,-1.5387 -0.9675,-0.9683 -1.5359,-0.9683 -2.7024,0 -1.1379,0.9446 -22.8591,1.2881 -94.5738,1.4958 l -93.0966,0.2696 0,44.8742 c 0,42.7245 -0.091,44.9752 -1.905,46.9804 -1.0477,1.1584 -2.7087,2.1062 -3.691,2.1062 -2.3093,0 -2.9481,1.1152 -2.2243,3.883 0.3706,1.4173 1.1084,2.0286 2.0242,1.6771 2.8664,-1.0999 5.0116,1.2353 5.6528,6.1536 0.7574,5.8104 -0.6128,15.2085 -2.3764,16.2985 -1.0383,0.6417 -1.0456,1.8157 -0.038,6.1406 2.2066,9.4716 2.4648,14.8472 0.7133,14.8472 -2.6123,0 -2.9659,2.0407 -0.7603,4.3885 2.5802,2.7465 2.7733,7.14 0.3548,8.0718 -1.6667,0.6421 -1.6667,0.721 0,1.6566 1.4853,0.8339 1.75,2.5017 1.75,11.0264 0,9.4029 -0.1358,10.0794 -2.1271,10.6002 -2.1184,0.554 -2.1174,0.5635 0.25,2.349 l 2.3771,1.7929 0,50.9512 c 0,45.479 -0.1736,51.1506 -1.6157,52.8074 -0.8887,1.0208 -1.9137,3.1094 -2.278,4.6414 -0.3927,1.652 -1.6412,3.1575 -3.0682,3.7001 -1.3233,0.5031 -23.4447,0.9462 -49.1587,0.9846 -25.7139,0.038 -46.9544,0.2715 -47.2009,0.518 -0.2466,0.2466 3.06,6.8751 7.3479,14.7301 33.6159,61.58135 76.3456,122.37485 124.254,176.78185 17.5494,19.9298 61.2897,63.6702 81.2196,81.2195 157.2978,138.5097 353.572899,222.8022 559.5,240.2836 39.7127,3.3713 95.982,4.4065 134.99997,2.4836 z m -845.885,-435.4867 c -0.8883,-1.375 -2.3418,-3.625 -3.23,-5 -0.9946,-1.5396 -1.1867,-2.5 -0.5,-2.5 0.6132,0 1.115,0.6592 1.115,1.4648 0,0.8057 0.8449,1.917 1.8776,2.4697 1.0327,0.5527 2.0953,2.1435 2.3614,3.5352 0.6028,3.1534 0.396,3.1573 -1.624,0.03 z m -8,-12 c -0.8883,-1.375 -2.3418,-3.625 -3.23,-5 -0.9946,-1.5396 -1.1867,-2.50003 -0.5,-2.50003 0.6132,0 1.115,0.65923 1.115,1.46483 0,0.8057 0.8449,1.917 1.8776,2.4697 1.0327,0.5527 2.0953,2.1435 2.3614,3.5352 0.6028,3.1534 0.396,3.1573 -1.624,0.03 z m -10.4615,-16.57693 c -1.777,-2.9827 -2.3185,-4.2981 -1.2031,-2.9231 1.1153,1.375 2.7552,3.2578 3.6441,4.1839 0.8889,0.9262 1.4303,2.2416 1.2032,2.9231 -0.2272,0.6816 -1.8671,-1.2012 -3.6442,-4.1839 z m -5.0106,-8.066 c -0.7048,-1.1285 -1.0618,-2.2716 -0.7932,-2.5401 0.2685,-0.2686 1.0112,0.4888 1.6503,1.683 1.5113,2.8238 0.8094,3.5257 -0.8571,0.8571 z m -5.4622,-9.1298 -1.8194,-3.2273 2.1874,2.1458 c 1.2031,1.1802 2.0218,2.6325 1.8194,3.2273 -0.2025,0.5949 -1.1868,-0.3708 -2.1874,-2.1458 z m -3.1164,-5.4342 c -0.5427,-1.4252 -0.4278,-1.54 0.5598,-0.5598 0.6834,0.6784 0.9907,1.4853 0.6828,1.7932 -0.3079,0.3078 -0.8671,-0.2472 -1.2426,-1.2334 z m -4,-7 c -0.5427,-1.4252 -0.4278,-1.54 0.5598,-0.5598 0.6834,0.6784 0.9907,1.4853 0.6828,1.7932 -0.3079,0.3078 -0.8671,-0.2472 -1.2426,-1.2334 z m -3.9643,-6.8931 c -0.3559,-0.9274 -0.4221,-1.9113 -0.1471,-2.1863 0.275,-0.275 0.7912,0.2589 1.1471,1.1863 0.3559,0.9274 0.4221,1.9113 0.1471,2.1863 -0.275,0.275 -0.7912,-0.2589 -1.1471,-1.1863 z m -4.0357,-7.1069 c -0.5427,-1.4252 -0.4278,-1.54 0.5598,-0.5598 0.6834,0.6784 0.9907,1.4853 0.6828,1.7932 -0.3079,0.3078 -0.8671,-0.2472 -1.2426,-1.2334 z m -39.8331,-81.2129 c -0.435,-1.6634 -0.3048,-2.0538 0.4372,-1.3118 0.5811,0.5812 0.8598,1.6469 0.6194,2.3683 -0.2497,0.749 -0.703,0.2957 -1.0566,-1.0565 z m -8,-19 c -0.435,-1.6634 -0.3048,-2.0538 0.4372,-1.3118 0.5811,0.5812 0.8598,1.6469 0.6194,2.3683 -0.2497,0.749 -0.703,0.2957 -1.0566,-1.0565 z m -8.1669,-20.7871 c -0.5427,-1.4252 -0.4278,-1.54 0.5598,-0.5598 0.6834,0.6784 0.9907,1.4853 0.6828,1.7932 -0.3079,0.3078 -0.8671,-0.2472 -1.2426,-1.2334 z m -3.8331,-10.2129 c -0.435,-1.6634 -0.3048,-2.0538 0.4372,-1.3118 0.5811,0.5812 0.8598,1.6469 0.6194,2.3683 -0.2497,0.749 -0.703,0.2957 -1.0566,-1.0565 z m -3.6523,-10.6635 c 0.048,-1.165 0.285,-1.4019 0.6042,-0.6042 0.2889,0.7219 0.2534,1.5844 -0.079,1.9167 -0.3323,0.3323 -0.5686,-0.2584 -0.5252,-1.3125 z m -12,-36 c 0.048,-1.165 0.285,-1.4019 0.6042,-0.6042 0.2889,0.7219 0.2534,1.5844 -0.079,1.9167 -0.3323,0.3323 -0.5686,-0.2584 -0.5252,-1.3125 z m -4.2544,-13.7425 c -0.3721,-1.8248 -0.2327,-2.4824 0.3935,-1.8562 0.5332,0.5332 0.7925,1.8049 0.5761,2.8258 -0.2914,1.3748 -0.5429,1.1233 -0.9696,-0.9696 z m -3.7456,-13.2575 c 0.048,-1.165 0.285,-1.4019 0.6042,-0.6042 0.2889,0.7219 0.2534,1.5844 -0.079,1.9167 -0.3323,0.3323 -0.5686,-0.2584 -0.5252,-1.3125 z m -4,-15 c 0.048,-1.165 0.285,-1.4019 0.6042,-0.6042 0.2889,0.7219 0.2534,1.5844 -0.079,1.9167 -0.3323,0.3323 -0.5686,-0.2584 -0.5252,-1.3125 z m -4,-16 c 0.048,-1.165 0.285,-1.4019 0.6042,-0.6042 0.2889,0.7219 0.2534,1.5844 -0.079,1.9167 -0.3323,0.3323 -0.5686,-0.2584 -0.5252,-1.3125 z m -4,-17 c 0.048,-1.165 0.285,-1.4019 0.6042,-0.6042 0.2889,0.7219 0.2534,1.5844 -0.079,1.9167 -0.3323,0.3323 -0.5686,-0.2584 -0.5252,-1.3125 z m -3.921,-18.4167 c 0,-1.375 0.227,-1.9375 0.5044,-1.25 0.2774,0.6875 0.2774,1.8125 0,2.5 -0.2774,0.6875 -0.5044,0.125 -0.5044,-1.25 z m -4.079,-20.5833 c 0.048,-1.165 0.285,-1.4019 0.6042,-0.6042 0.2889,0.7219 0.2534,1.5844 -0.079,1.9167 -0.3323,0.3323 -0.5686,-0.2584 -0.5252,-1.3125 z M 917.76192,464.25517 c -0.3294,-0.9879 -22.172,-1.2843 -104.1635,-1.4136 -57.0607,-0.09 -103.9896,-0.4063 -104.2863,-0.7031 -0.2968,-0.2968 -0.4889,-29.24818 -0.427,-64.33645 0.1133,-64.15583 0.7376,-78.04888 3.824,-85.09794 0.7949,-1.8156 1.7066,-4.9656 2.0258,-7 0.3193,-2.0344 1.1692,-4.04864 1.8887,-4.4761 0.7194,-0.42745 1.5954,-2.30878 1.9466,-4.18073 0.3512,-1.87195 1.2114,-3.62337 1.9115,-3.89205 0.7002,-0.26868 1.5674,-1.66129 1.9272,-3.0947 0.3597,-1.43341 1.3578,-3.45458 2.2179,-4.49148 2.0628,-2.4868 11.1108,-11.52353 13.2411,-13.22456 5.4771,-4.37355 17.4143,-10.83542 20.0351,-10.84545 0.885,-0.003 2.9591,-0.72709 4.6091,-1.60821 1.65,-0.88113 6.3088,-1.9867 10.3529,-2.45683 4.0441,-0.47012 8.0507,-1.43392 8.9034,-2.14178 1.2411,-1.03027 21.3194,-1.28702 100.6471,-1.28702 94.171,0 99.4445,0.0943 106.0966,1.89673 4.0805,1.10565 10.2217,1.89064 14.72448,1.88213 6.8837,-0.013 7.7945,0.20573 8.367,2.0094 0.6745,2.12534 5.1232,6.71174 6.5101,6.71174 0.8899,0 6.4747,3.65508 9.1807,6.00851 0.9432,0.82032 3.6891,3.29149 6.1019,5.49149 2.4128,2.2 5.5313,4.94981 6.9299,6.11069 1.4471,1.20108 2.8384,3.68514 3.2284,5.76407 0.3769,2.00936 1.1966,3.98455 1.8214,4.38931 1.733,1.12259 4.8965,7.02816 6.2868,11.73593 0.7092,2.40149 1.6844,3.1995 4.8881,4 4.6874,1.17122 4.8834,3.28292 0.7156,7.70959 -2.3939,2.54257 -2.5089,3.12817 -1.865,9.5 0.6431,6.36347 1.0031,134.23121 0.3798,134.85461 -0.1581,0.158 -29.954,0.4286 -66.21318,0.6012 -50.5703,0.2407 -66.4917,0.6074 -68.3552,1.5742 -2.9784,1.5452 -2.9392,1.5451 -3.451,0.01 z m -834.277321,-4.1122 c -1.0849,-0.7493 -4.1362,-1.6808 -6.7808,-2.0701 -2.7077,-0.3985 -5.0479,-1.3324 -5.3569,-2.1377 -0.3018,-0.7865 -1.4221,-1.43 -2.4895,-1.43 -1.0675,0 -2.9834,-1.125 -4.2577,-2.5 -1.2743,-1.375 -2.8278,-2.5 -3.4523,-2.5 -0.6244,0 -1.1353,-0.6592 -1.1353,-1.4648 0,-0.8057 -0.8527,-1.9212 -1.8948,-2.4789 -1.0422,-0.5577 -2.4061,-2.2611 -3.031,-3.7852 -0.6249,-1.5241 -1.7906,-3.8961 -2.5905,-5.2711 -1.8712,-3.21681 -1.9322,-11.38291 -0.096,-12.90651 0.9375,-0.77803 5.8736,-1.06094 15.222,-0.87244 13.3656,0.26949 13.8741,0.35809 14.9969,2.61313 0.6392,1.28381 1.6643,2.83631 2.278,3.45 0.6137,0.6137 1.1158,1.87241 1.1158,2.79713 0,0.92472 1.545,2.85972 3.4333,4.29999 2.8853,2.2007 4.4649,2.6187 9.8971,2.6187 5.609401,0 6.874101,-0.3599 9.566701,-2.7227 1.7066,-1.49746 3.1029,-3.46736 3.1029,-4.37754 0,-0.91018 0.675,-2.21507 1.5,-2.89976 1.2901,-1.07068 1.5,-7.1669 1.5,-43.56343 0,-27.55474 -0.3542,-42.53742 -1.0152,-42.94593 -0.5583,-0.34507 -1.6323,-2.10447 -2.3866,-3.90978 -1.503,-3.59731 -4.6921,-4.64567 -13.598201,-4.47017 -7.1558,0.141 -9.3156,1.14098 -11.7263,5.42919 -2.7399,4.87384 -4.2737,8.29239 -4.2737,9.52522 0,0.53696 -6.1825,0.9349 -14.5248,0.9349 l -14.5247,0 -1.0688,-2.75 c -1.4023,-3.60801 -0.4078,-13.39214 1.5033,-14.78954 0.8153,-0.5962 1.7777,-2.26062 2.1387,-3.69871 0.7986,-3.18186 8.8499,-11.54349 12.9763,-13.47639 1.65,-0.77291 4.125,-2.04666 5.5,-2.83058 1.375,-0.78391 3.9074,-1.43193 5.6276,-1.44004 1.7201,-0.008 3.6877,-0.68974 4.3724,-1.51474 1.7193,-2.07168 27.558401,-2.18828 30.527501,-0.13776 1.0849,0.74924 4.1362,1.68074 6.7807,2.07001 2.6446,0.38927 5.0396,1.31065 5.3224,2.04751 0.2828,0.73686 1.708,1.6394 3.1672,2.00563 2.8921,0.72586 11.8281,9.79658 12.8214,13.01461 0.3396,1.1 1.3516,2.83433 2.2491,3.85408 1.4512,1.64896 1.6656,7.18028 1.9382,50 0.1686,26.48025 0.035,50.01361 -0.2964,52.29634 -0.3315,2.28278 -1.4819,5.16408 -2.5564,6.40298 -1.0746,1.239 -1.9537,2.6299 -1.9537,3.0909 0,0.4611 -1.4625,2.1791 -3.25,3.8179 -1.7875,1.6388 -3.9371,3.6407 -4.7768,4.4486 -0.8398,0.808 -2.6398,1.9654 -4,2.572 -1.3603,0.6067 -3.5982,1.7521 -4.9732,2.5454 -1.375,0.7933 -3.85,1.4633 -5.5,1.4889 -1.65,0.026 -3.8735,0.7072 -4.9411,1.5147 -2.6833,2.0295 -28.175301,2.1164 -31.086401,0.106 z m -619.272499,-2.8378 c -1.4605,-1.4605 -1.6252,-15.5515 -0.2248,-19.2349 l 0.9753,-2.5651 23.0247,0 23.0248,0 0,-21 0,-21 -18.941,0 c -13.9369,0 -19.1423,-0.32582 -19.7032,-1.23325 -0.4192,-0.67829 -0.9468,-5.09509 -1.1725,-9.8151 -0.591,-12.36276 -1.3267,-11.95165 21.3881,-11.95165 l 18.4286,0 0,-18.5 0,-18.5 -23.0248,0 -23.0247,0 -0.9753,-2.5651 c -1.4004,-3.6834 -1.2357,-17.77437 0.2248,-19.2349 1.7221,-1.72214 75.8779,-1.72214 77.6,0 0.9109,0.91087 1.2,18.3619 1.2,72.42857 0,63.41993 -0.1723,71.40083 -1.5714,72.80003 -1.3723,1.3723 -6.2892,1.5714 -38.8,1.5714 -27.6223,0 -37.5382,-0.3096 -38.4286,-1.2 z m 160,0 c -0.8628,-0.8628 -1.2,-7.576 -1.2,-23.89217 l 0,-22.69218 -18.75,-0.40573 c -17.0149,-0.36818 -19.1188,-0.60951 -22.7352,-2.60782 -2.1919,-1.21116 -4.3094,-2.2021 -4.7056,-2.2021 -1.3955,0 -7.7669,-4.79652 -10.1371,-7.63138 -1.3191,-1.57774 -2.7505,-3.99189 -3.1808,-5.36478 -0.4303,-1.37289 -1.5044,-3.02345 -2.3868,-3.66791 -1.3742,-1.00358 -1.6509,-4.4485 -1.9281,-24.00384 -0.3609,-25.4677 0.039,-30.12158 2.8699,-33.38552 1.0745,-1.23892 1.9537,-2.78899 1.9537,-3.44459 0,-0.6556 0.9,-2.00649 2,-3.00198 1.1,-0.99549 2,-2.3353 2,-2.97736 0,-1.24182 7.466,-6.52264 9.2217,-6.52264 0.5732,0 2.6703,-1.0125 4.6603,-2.25 3.5338,-2.19764 4.3935,-2.25725 36.9413,-2.56162 24.5979,-0.23002 33.6968,-0.002 34.75,0.87245 1.2112,1.0052 1.4267,11.95496 1.4267,72.49019 0,63.49038 -0.1722,71.47838 -1.5714,72.87758 -1.2702,1.2702 -4.1074,1.5714 -14.8,1.5714 -8.9556,0 -13.6162,-0.3876 -14.4286,-1.2 z m -1.2,-96.8 0,-27 -11.75,0.0136 c -12.633,0.0147 -16.25,0.547 -16.25,2.39154 0,0.64456 -0.9,2.93722 -2,5.09481 -1.7546,3.44149 -2,5.89718 -2,20.01144 0,9.95414 0.4024,16.49093 1.0553,17.14383 0.5804,0.5804 1.8179,2.56993 2.75,4.42119 2.1113,4.19331 3.9387,4.69862 17.4447,4.82386 l 10.75,0.0997 0,-27 z m 51.25,96.9688 c -2.516,-1.0113 -3.0745,-4.7152 -0.8403,-5.5725 0.7754,-0.2976 1.6953,-1.6786 2.0443,-3.069 0.3489,-1.3904 1.4201,-3.7203 2.3803,-5.1776 3.0626,-4.6482 4.1704,-6.5724 5.6992,-9.8997 0.8213,-1.7875 1.9015,-3.25 2.4005,-3.25 0.4989,0 1.2103,-1.38041 1.5808,-3.06757 0.3706,-1.68716 1.2657,-3.29472 1.9892,-3.57236 0.7235,-0.27763 1.5786,-1.55297 1.9001,-2.83408 0.7199,-2.8684 5.6476,-10.52599 6.7735,-10.52599 0.4523,0 0.8224,-0.87545 0.8224,-1.94543 0,-1.86235 -2.1921,-3.52401 -8.25,-6.25384 -1.5125,-0.68156 -2.75,-1.81555 -2.75,-2.51997 0,-0.70442 -0.6093,-1.28076 -1.354,-1.28076 -1.6152,0 -6.646,-4.47617 -6.646,-5.9133 0,-0.55483 -1.0125,-1.95187 -2.25,-3.10453 -2.2212,-2.06892 -2.25,-2.42642 -2.25,-27.93327 0,-23.20358 0.1784,-26.03473 1.75,-27.77196 0.9625,-1.06393 1.75,-2.37284 1.75,-2.90868 0,-1.36488 5.9943,-9.41399 9,-12.08516 1.375,-1.22196 4.075,-2.74244 6,-3.37885 1.925,-0.63641 4.3341,-1.88771 5.3535,-2.78068 1.6149,-1.41466 6.1601,-1.66367 35.3233,-1.93519 24.7107,-0.23006 33.8432,-0.002 34.8965,0.87245 1.2113,1.00531 1.4267,12.00471 1.4267,72.86161 0,54.41586 -0.289,71.96656 -1.2,72.87756 -1.6692,1.6692 -27.9308,1.6692 -29.6,0 -0.8632,-0.8632 -1.2,-7.6 -1.2,-24 l 0,-22.8 -3.9205,0 c -3.5414,0 -3.9842,0.28959 -4.5782,2.99404 -0.3617,1.64673 -1.2295,3.33423 -1.9285,3.75 -1.171,0.69651 -2.3354,2.57008 -5.7528,9.25596 -0.7029,1.375 -1.8147,2.84018 -2.4708,3.25596 -0.6561,0.41577 -1.4882,2.10059 -1.8492,3.74404 -0.361,1.6434 -1.1836,3.3283 -1.8282,3.744 -1.8112,1.1684 -5.6718,7.009 -5.6718,8.5806 0,0.7731 -0.8381,2.4789 -1.8624,3.7905 -1.0244,1.3117 -2.1879,3.4232 -2.5856,4.6922 -0.3977,1.269 -1.8389,2.7315 -3.2027,3.25 -3.1322,1.1909 -26.0901,1.1211 -29.0993,-0.089 z m 65.3803,-72.2188 c -0.3317,-1.2375 -0.6091,-13.3875 -0.6167,-27 l -0.014,-24.75 -11.3057,0 c -10.5131,0 -11.5451,0.17666 -14.7215,2.52007 -4.4135,3.25623 -5.2621,4.88628 -4.4554,8.55909 0.3814,1.73646 0.1881,3.57085 -0.4585,4.34988 -0.8268,0.99627 -0.8048,2.03443 0.084,3.98616 0.9198,2.01869 0.9268,2.91476 0.029,3.81193 -1.4521,1.45225 -1.63,19.77287 -0.1918,19.77287 0.5395,0 1.2845,1.2375 1.6555,2.75 0.7443,3.03404 4.3038,6.83252 7.0787,7.55397 0.9817,0.25521 6.6748,0.51623 12.6515,0.58003 10.8049,0.11534 10.8632,0.10322 10.2636,-2.134 z m 52.3996,71.786 c -0.9042,-1.0895 -1.079,-6.5255 -0.6831,-21.25 0.2925,-10.88231 0.4987,-20.236 0.458,-20.786 -0.041,-0.55 -0.2519,-13.66682 -0.4695,-29.14848 -0.3488,-24.82377 -0.2063,-28.33764 1.206,-29.75 2.3025,-2.30242 26.5596,-2.35774 28.8516,-0.0658 1.338,1.33808 1.5411,7.8553 1.578,50.63963 0.03,35.06315 -0.2806,49.49285 -1.0868,50.46425 -1.6931,2.0401 -28.1513,1.9483 -29.8542,-0.1036 z m 46.2201,0.4699 c -2.6173,-1.0952 -3.0618,-5.3893 -0.8832,-8.5334 0.7517,-1.0849 1.6845,-4.9822 2.0729,-8.6606 0.3884,-3.6785 1.291,-7.17343 2.0057,-7.76658 0.7147,-0.59314 1.6086,-4.21556 1.9864,-8.04982 0.3778,-3.83425 1.2635,-7.5479 1.9681,-8.25255 0.7046,-0.70464 1.6048,-3.74757 2.0004,-6.76206 0.3956,-3.01449 1.2971,-6.38089 2.0034,-7.48089 0.7063,-1.1 1.5909,-5.35226 1.9658,-9.44946 0.3748,-4.0972 1.2862,-8.1472 2.0253,-9 0.7391,-0.8528 1.6507,-4.69056 2.0257,-8.52836 0.375,-3.83781 1.2769,-7.66281 2.0041,-8.5 0.7272,-0.8372 1.6338,-4.44718 2.0146,-8.02218 0.3809,-3.575 1.2821,-7.41148 2.0026,-8.52551 0.7206,-1.11404 1.639,-5.38904 2.041,-9.5 0.402,-4.11097 1.3049,-8.14949 2.0065,-8.97449 0.7016,-0.825 1.5898,-4.54162 1.9737,-8.25914 0.384,-3.71753 1.3369,-7.39789 2.1176,-8.17858 0.7807,-0.78068 1.4194,-1.89299 1.4194,-2.4718 0,-0.57881 1.0363,-1.31246 2.3028,-1.63035 2.9874,-0.74978 43.344099,-0.1517 44.147199,0.65426 0.3366,0.33791 0.8834,3.03791 1.215,6 0.3316,2.96208 1.1836,6.06061 1.8934,6.88561 0.7098,0.825 1.6172,4.425 2.0166,8 0.3993,3.575 1.284,7.4 1.966,8.5 0.6819,1.1 1.455,5.27409 1.7178,9.27576 0.2986,4.54604 1.0548,7.92266 2.0157,9 0.8607,0.96504 1.8605,4.78899 2.2707,8.6847 0.4031,3.82826 1.3186,7.54619 2.0345,8.26207 0.7158,0.71588 1.6107,4.43872 1.9885,8.27297 0.3778,3.83426 1.2717,7.45668 1.9864,8.04982 0.7147,0.59315 1.6213,4.08811 2.0147,7.76657 0.3933,3.67846 1.2965,7.58811 2.0071,8.68811 0.7105,1.1 1.6162,4.91428 2.0125,8.47618 0.3963,3.56191 1.2897,7.04529 1.9853,7.74086 0.6955,0.69557 1.5899,4.30629 1.9874,8.02382 0.3976,3.71754 1.2976,7.65914 2,8.75914 0.7025,1.1 1.5907,4.5909 1.974,7.7576 1.0439,8.626 0.8348,8.7424 -15.7035,8.7424 -13.2976,0 -14.029,-0.106 -16.283,-2.36 -1.8169,-1.8169 -2.5238,-3.9453 -3.0721,-9.25 -0.3916,-3.7895 -1.3112,-7.575 -2.0434,-8.4122 -0.7322,-0.8372 -1.6381,-4.66217 -2.0131,-8.49998 -0.375,-3.8378 -1.2452,-7.65282 -1.9337,-8.47782 -0.6884,-0.825 -1.5745,-4.62177 -1.9689,-8.43727 -0.3945,-3.81549 -1.3102,-7.86549 -2.035,-9 -0.7249,-1.1345 -1.644,-5.21273 -2.0426,-9.06273 -0.3986,-3.85 -1.3235,-7.91487 -2.0554,-9.03304 -0.7318,-1.11818 -1.642399,-5.38735 -2.023399,-9.48706 -0.381,-4.09971 -1.2542,-8.01545 -1.9404,-8.70163 -0.6862,-0.68619 -1.585,-4.74201 -1.9974,-9.01294 -0.6651,-6.88825 -0.8475,-7.39825 -1.6153,-4.51533 -0.4761,1.7875 -1.3027,3.25 -1.837,3.25 -0.5343,0 -0.9982,1.9125 -1.031,4.25 -0.089,6.36605 -1.5082,13.86486 -2.7712,14.64543 -0.6142,0.37959 -1.4133,4.04591 -1.7757,8.14737 -0.3624,4.10146 -1.216,8.1322 -1.8968,8.9572 -0.6808,0.825 -1.5508,3.96959 -1.9333,6.98798 -0.3825,3.01839 -1.2986,6.84339 -2.0358,8.5 -0.7372,1.65661 -1.619,6.36428 -1.9595,10.46148 -0.3405,4.0972 -1.2298,8.1472 -1.9761,9 -0.7463,0.8528 -1.6711,4.59216 -2.055,8.30964 -0.384,3.7176 -1.2701,7.3312 -1.9692,8.0303 -0.6991,0.6991 -1.4978,3.6298 -1.7748,6.5128 -0.277,2.883 -0.83,5.5694 -1.2288,5.9698 -1.0999,1.1042 -28.7407,1.3107 -31.3142,0.2339 z m 128.146999,0.017 c -1.7196,-0.695 -2.2238,-2.0285 -2.7653,-7.3135 -0.3642,-3.5549 -1.3479,-7.838 -2.1859,-9.5179 -0.8381,-1.68 -1.7915,-5.4479 -2.1187,-8.37312 -0.3273,-2.92528 -1.1867,-6.00366 -1.9099,-6.84086 -0.7231,-0.83719 -1.6358,-4.65474 -2.028,-8.48344 -0.3923,-3.82869 -1.2791,-7.5271 -1.9706,-8.21868 -0.6916,-0.69157 -1.5716,-4.29903 -1.9556,-8.01656 -0.3839,-3.71752 -1.278,-7.43414 -1.9867,-8.25914 -0.7088,-0.825 -1.6157,-4.65 -2.0153,-8.5 -0.3997,-3.85 -1.1673,-7.28271 -1.7058,-7.62824 -1.1399,-0.73135 -2.6487,-7.84971 -2.7117,-12.79302 -0.024,-1.88169 -0.6955,-4.14167 -1.4923,-5.02217 -0.7969,-0.88051 -1.7638,-4.74094 -2.1488,-8.57875 -0.385,-3.8378 -1.1755,-7.28651 -1.7566,-7.6638 -0.5812,-0.37729 -1.3484,-3.86916 -1.705,-7.75972 -0.3702,-4.03874 -1.2992,-7.82041 -2.1652,-8.81402 -0.8342,-0.95715 -1.8099,-4.06072 -2.1682,-6.89681 -0.9972,-7.89218 -0.1638,-8.34317 15.417,-8.34317 13.6025,0 17.9756,1.01218 17.9756,4.16052 0,1.01171 -0.45,1.83948 -1,1.83948 -0.55,0 -1,0.9 -1,2 0,1.1 0.3778,2 0.8395,2 1.066,0 3.1605,4.53803 3.1605,6.84769 0,0.96447 0.5625,2.96478 1.25,4.44514 l 1.25,2.69157 19.25,0.008 19.2500003,0.008 0,-3.37756 c 0,-1.85765 0.6137,-3.8869 1.3638,-4.50944 0.7745997,-0.64286 1.5908997,-3.96038 1.8893997,-7.67846 0.289,-3.60061 0.8374,-6.85886 1.2185,-7.24055 0.9392,-0.94045 25.7648,-1.5598 30.0792,-0.75041 3.3018,0.61941 3.4491,0.83208 3.4491,4.97929 0,2.42964 -0.5964,4.82722 -1.358,5.4593 -0.7469,0.61989 -1.6486,3.90644 -2.0036,7.30345 -0.3551,3.39701 -1.2556,7.10743 -2.0011,8.24538 -0.7456,1.13795 -1.683,5.5634 -2.0832,9.83433 -0.4002,4.27093 -1.3179,8.3556 -2.0393,9.07704 -0.7215,0.72145 -1.6387,4.80024 -2.0382,9.064 -0.4346,4.63752 -1.2232,7.94291 -1.9629,8.22675 -0.7276,0.27919 -1.5099,3.41569 -1.9006,7.62014 -0.3653,3.93011 -1.2748,7.8434 -2.0211,8.6962 -0.7463,0.8528 -1.6711,4.59216 -2.055,8.30968 -0.384,3.71753 -1.264,7.32499 -1.9556,8.01656 -0.6915,0.69158 -1.5783,4.38999 -1.9706,8.21868 -0.3922,3.8287 -1.3082,7.64625 -2.0354,8.48344 -0.7272,0.8372 -1.6338,4.44718 -2.0146,8.02218 -0.3809,3.575 -1.2739,7.4 -1.9844,8.5 -0.7106,1.1 -1.6162,5.0326 -2.0126,8.7391 -1.1423,10.6821 -1.3676,10.775 -25.9487,10.6975 -11.0633,-0.035 -21.0615,-0.4459 -22.2181,-0.9134 z m 23.8678003,-41.7729 c 0.9385,-1.04289 1.864,-4.70536 2.2905,-9.0641 0.3937,-4.02275 1.2754,-7.87375 1.9594,-8.55777 0.684,-0.68403 1.5702,-4.49522 1.9693,-8.46932 0.3992,-3.97411 1.3078,-7.80778 2.0193,-8.51927 0.71149999,-0.7115 1.61609999,-4.73429 2.01009999,-8.93954 0.4224,-4.50721 1.28510001,-8.11779 2.10150001,-8.7954 0.7618,-0.63222 1.3851,-2.21939 1.3851,-3.52704 l 0,-2.37756 -15.0000003,0 -15,0 0,4.87756 c 0,2.88673 0.5538,5.33713 1.3567,6.00354 0.7702,0.63921 1.6459,4.2368 2.0255,8.3219 0.3679,3.95775 1.2795,7.89366 2.0258,8.74646 0.7463,0.8528 1.6788,4.66415 2.0722,8.46968 0.3933,3.80552 1.3462,7.55016 2.1175,8.32142 0.7713,0.77127 1.4072,2.83265 1.4133,4.58087 0.019,5.53268 1.2069,10.67857 2.4648,10.67857 0.6678,0 1.9229,-0.7875 2.7890003,-1.75 z m 205.9352007,41.55 c -0.8381,-0.8381 -1.2,-6.2667 -1.2,-18 l 0,-16.8 -6.75,-0.18632 c -3.7125,-0.10247 -8.6785,-0.21497 -11.0357,-0.25 -2.664,-0.0396 -4.6447,-0.63126 -5.2346,-1.56368 -1.2473,-1.97143 -1.2505,-15.15755 0,-18.4349 0.9654,-2.53938 1.0857,-2.5651 12,-2.5651 6.6831,0 11.0247,-0.3938 11.0247,-1 0,-0.6062 -4.3416,-1 -11.0247,-1 -10.9143,0 -11.0346,-0.0257 -12,-2.5651 -0.5368,-1.4108 -0.9757,-5.87866 -0.9757,-9.92857 0,-9.51903 0.9108,-10.49617 9.8214,-10.53674 4.7313,-0.0215 6.2016,-0.30901 5.0425,-0.98593 -0.8998,-0.52554 -1.9246,-2.49341 -2.2772,-4.37304 -0.3526,-1.87963 -1.247,-3.65004 -1.9876,-3.93423 -0.7406,-0.28419 -1.6406,-2.08419 -2,-4 -0.3594,-1.91581 -1.2914,-3.72809 -2.0711,-4.02728 -0.7797,-0.2992 -1.7117,-2.11148 -2.0711,-4.02728 -0.3594,-1.91581 -1.2843,-3.72534 -2.0552,-4.02118 -0.7709,-0.29583 -1.4017,-1.88617 -1.4017,-3.53408 0,-1.91029 -0.6822,-3.3613 -1.8823,-4.00357 -1.2208,-0.65337 -2.1247,-2.62381 -2.5721,-5.60727 -0.3794,-2.52994 -1.5782,-5.57996 -2.6641,-6.77781 -1.0859,-1.19786 -2.6239,-2.88633 -3.4178,-3.75217 -0.7939,-0.86584 -1.7235,-2.97457 -2.0658,-4.68607 -0.3423,-1.7115 -1.2468,-3.35147 -2.0101,-3.64437 -2.3793,-0.91302 -1.6157,-4.55816 1.1773,-5.62006 3.3041,-1.25624 29.5227,-1.27258 32.816,-0.0204 1.78,0.67676 2.7012,1.96697 3.1634,4.43073 0.3586,1.91176 1.258,3.70845 1.9986,3.99264 0.7406,0.2842 1.6406,2.0842 2,4 0.3594,1.91581 1.2594,3.71581 2,4 0.7406,0.2842 1.6406,2.0842 2,4 0.3594,1.91581 1.2594,3.71581 2,4 0.7406,0.2842 1.6406,2.0842 2,4 0.3594,1.91581 1.2843,3.72534 2.0552,4.02118 0.7709,0.29583 1.4017,1.227 1.4017,2.06927 0,0.84226 0.45,1.53138 1,1.53138 0.55,0 1,-0.68912 1,-1.53138 0,-0.84227 0.6308,-1.77344 1.4017,-2.06927 0.7709,-0.29584 1.6958,-2.10537 2.0552,-4.02118 0.3594,-1.9158 1.2594,-3.7158 2,-4 0.7406,-0.28419 1.6406,-2.08419 2,-4 0.3594,-1.9158 1.2594,-3.7158 2,-4 0.7406,-0.28419 1.6406,-2.08419 2,-4 0.3594,-1.9158 1.2594,-3.7158 2,-4 0.7406,-0.28419 1.6399,-2.08088 1.9986,-3.99264 0.4622,-2.46376 1.3834,-3.75397 3.1634,-4.43073 3.2933,-1.25213 29.5119,-1.23579 32.816,0.0204 2.8008,1.06485 3.5542,4.70797 1.1634,5.6254 -0.7709,0.29584 -1.6958,2.10537 -2.0552,4.02118 -0.3594,1.9158 -1.2594,3.7158 -2,4 -0.7406,0.28419 -1.6406,2.08419 -2,4 -0.3594,1.9158 -1.2594,3.7158 -2,4 -0.7406,0.28419 -1.6406,2.08419 -2,4 -0.3594,1.9158 -1.2594,3.7158 -2,4 -0.7406,0.28419 -1.6406,2.08419 -2,4 -0.3594,1.9158 -1.2914,3.72808 -2.0711,4.02728 -0.7797,0.29919 -1.7117,2.11147 -2.0711,4.02728 -0.3594,1.91581 -1.2594,3.71581 -2,4 -0.7406,0.28419 -1.6406,2.08419 -2,4 -0.3594,1.91581 -1.2594,3.71581 -2,4 -0.7406,0.28419 -1.635,2.0546 -1.9876,3.93423 -0.3527,1.87963 -1.3774,3.8475 -2.2772,4.37304 -1.1528,0.67328 0.4463,0.9645 5.4139,0.98593 4.1103,0.0177 7.5504,0.53079 8.25,1.23041 1.4605,1.46053 1.6252,15.5515 0.2247,19.2349 -0.9654,2.53938 -1.0857,2.5651 -12,2.5651 -6.6831,0 -11.0247,0.3938 -11.0247,1 0,0.6062 4.3416,1 11.0247,1 10.9143,0 11.0346,0.0257 12,2.5651 1.4005,3.6834 1.2358,17.77437 -0.2247,19.2349 -0.7852,0.78519 -4.9333,1.2 -12,1.2 l -10.8,0 0,16.8 c 0,11.7333 -0.3619,17.1619 -1.2,18 -0.8157,0.8157 -5.5556,1.2 -14.8,1.2 -9.2444,0 -13.9843,-0.3843 -14.8,-1.2 z m 411.8299,-0.264 c -0.9042,-1.0895 -1.079,-6.5255 -0.6831,-21.25 0.2926,-10.88231 0.4987,-20.236 0.458,-20.786 -0.041,-0.55 -0.2519,-13.66682 -0.4695,-29.14848 -0.3488,-24.82377 -0.2063,-28.33764 1.206,-29.75 2.3025,-2.30242 26.55962,-2.35774 28.85162,-0.0658 1.338,1.33808 1.5411,7.8553 1.578,50.63963 0.03,35.06315 -0.2806,49.49285 -1.0868,50.46425 -1.6931,2.0401 -28.15132,1.9483 -29.85422,-0.1036 z m 52.00002,0 c -0.9042,-1.0895 -1.079,-6.5255 -0.6831,-21.25 0.2926,-10.88231 0.4987,-20.236 0.458,-20.786 -0.041,-0.55 -0.2519,-13.66682 -0.4695,-29.14848 -0.3488,-24.82377 -0.2063,-28.33764 1.206,-29.75 2.3025,-2.30242 26.5596,-2.35774 28.8516,-0.0658 1.338,1.33808 1.5411,7.8553 1.578,50.63963 0.03,35.06315 -0.2806,49.49285 -1.0868,50.46425 -1.6931,2.0401 -28.1513,1.9483 -29.8542,-0.1036 z M -208.0127,346.94007 c -1.455,-3.82698 -1.2641,-33.74598 0.2248,-35.2349 0.8157,-0.81569 5.5556,-1.2 14.8,-1.2 9.2444,0 13.9843,0.38431 14.8,1.2 1.4889,1.48892 1.6798,31.40792 0.2247,35.2349 l -0.9752,2.5651 -14.0495,0 -14.0495,0 -0.9753,-2.5651 z m 816,0 c -1.455,-3.82698 -1.2641,-33.74598 0.2248,-35.2349 0.8157,-0.81569 5.5556,-1.2 14.80002,-1.2 9.2444,0 13.9843,0.38431 14.8,1.2 1.4889,1.48892 1.6798,31.40792 0.2248,35.2349 l -0.9753,2.5651 -14.0495,0 -14.04952,0 -0.9753,-2.5651 z m 52.00002,0 c -1.455,-3.82698 -1.2641,-33.74598 0.2248,-35.2349 0.8157,-0.81569 5.5556,-1.2 14.8,-1.2 9.2444,0 13.9843,0.38431 14.8,1.2 1.4889,1.48892 1.6798,31.40792 0.2248,35.2349 l -0.9753,2.5651 -14.0495,0 -14.0495,0 -0.9753,-2.5651 z M -634.909,313.92184 c 0.048,-1.16495 0.285,-1.4019 0.6042,-0.60417 0.2889,0.72187 0.2534,1.58438 -0.079,1.91667 -0.3323,0.33229 -0.5686,-0.25834 -0.5252,-1.3125 z m 4.079,-20.41667 c 0,-1.375 0.227,-1.9375 0.5044,-1.25 0.2774,0.6875 0.2774,1.8125 0,2.5 -0.2774,0.6875 -0.5044,0.125 -0.5044,-1.25 z m 3.921,-18.58333 c 0.048,-1.16495 0.285,-1.4019 0.6042,-0.60417 0.2889,0.72187 0.2534,1.58438 -0.079,1.91667 -0.3323,0.33229 -0.5686,-0.25834 -0.5252,-1.3125 z m 4,-17 c 0.048,-1.16495 0.285,-1.4019 0.6042,-0.60417 0.2889,0.72187 0.2534,1.58438 -0.079,1.91667 -0.3323,0.33229 -0.5686,-0.25834 -0.5252,-1.3125 z m 4,-16 c 0.048,-1.16495 0.285,-1.4019 0.6042,-0.60417 0.2889,0.72187 0.2534,1.58438 -0.079,1.91667 -0.3323,0.33229 -0.5686,-0.25834 -0.5252,-1.3125 z m 4,-15 c 0.048,-1.16495 0.285,-1.4019 0.6042,-0.60417 0.2889,0.72187 0.2534,1.58438 -0.079,1.91667 -0.3323,0.33229 -0.5686,-0.25834 -0.5252,-1.3125 z m 3.7456,-13.09085 c 0.4267,-2.09296 0.6782,-2.34442 0.9696,-0.9696 0.2164,1.02092 -0.043,2.29254 -0.5761,2.82582 -0.6262,0.62614 -0.7656,-0.0314 -0.3935,-1.85622 z m 4.2544,-13.90915 c 0.048,-1.16495 0.285,-1.4019 0.6042,-0.60417 0.2889,0.72187 0.2534,1.58438 -0.079,1.91667 -0.3323,0.33229 -0.5686,-0.25834 -0.5252,-1.3125 z m 12,-36 c 0.048,-1.16495 0.285,-1.4019 0.6042,-0.60417 0.2889,0.72187 0.2534,1.58438 -0.079,1.91667 -0.3323,0.33229 -0.5686,-0.25834 -0.5252,-1.3125 z m 3.6523,-10.49683 c 0.3536,-1.3522 0.8069,-1.8055 1.0566,-1.05655 0.2404,0.72144 -0.038,1.78716 -0.6194,2.36826 -0.742,0.74207 -0.8722,0.35164 -0.4372,-1.31171 z m 3.8331,-10.21297 c 0.3755,-0.98622 0.9347,-1.54122 1.2426,-1.23333 0.3079,0.30789 6e-4,1.11479 -0.6828,1.79313 -0.9876,0.98026 -1.1025,0.8654 -0.5598,-0.5598 z m 8.1669,-20.78703 c 0.3536,-1.3522 0.8069,-1.8055 1.0566,-1.05655 0.2404,0.72144 -0.038,1.78716 -0.6194,2.36826 -0.742,0.74207 -0.8722,0.35164 -0.4372,-1.31171 z m 8,-19 c 0.3536,-1.3522 0.8069,-1.8055 1.0566,-1.05655 0.2404,0.72144 -0.038,1.78716 -0.6194,2.36826 -0.742,0.74207 -0.8722,0.35164 -0.4372,-1.31171 z m 19.8331,-43.212966 c 0.3755,-0.98622 0.9347,-1.54122 1.2426,-1.23333 0.3079,0.30789 6e-4,1.11479 -0.6828,1.79313 -0.9876,0.98026 -1.1025,0.8654 -0.5598,-0.5598 z m 4,-8 c 0.3755,-0.98622 0.9347,-1.54122 1.2426,-1.23333 0.3079,0.30789 6e-4,1.11479 -0.6828,1.79313 -0.9876,0.98026 -1.1025,0.8654 -0.5598,-0.5598 z m 16,-30 c 0.3755,-0.98622 0.9347,-1.54122 1.2426,-1.23333 0.3079,0.30789 6e-4,1.11479 -0.6828,1.79313 -0.9876,0.98026 -1.1025,0.8654 -0.5598,-0.5598 z m 3.451,-5.39785 c 0.01,-0.44496 0.4515,-1.48402 0.9847,-2.30902 0.8354,-1.29269 0.9715,-1.26629 0.9847,0.19098 0.01,0.93004 -0.4347,1.9691 -0.9847,2.30902 -0.55,0.33992 -0.9931,0.25398 -0.9847,-0.19098 z m 4.549,-8.6021502 c 0.3755,-0.98622 0.9347,-1.54122 1.2426,-1.23333 0.3079,0.30789 6e-4,1.11479 -0.6828,1.79313 -0.9876,0.98026 -1.1025,0.8654 -0.5598,-0.5598 z m 4,-7 c 0.3755,-0.98622002 0.9347,-1.54122002 1.2426,-1.23333002 0.3079,0.30789 6e-4,1.11479002 -0.6828,1.79313002 -0.9876,0.98026 -1.1025,0.8654 -0.5598,-0.5598 z m 3.1164,-5.43419 c 1.0006,-1.77502 1.9849,-2.74064 2.1874,-2.14583 0.2024,0.59482 -0.6163,2.04711 -1.8194,3.22732 l -2.1874,2.14582998 1.8194,-3.22731998 z m 4.3829,-6.7726798 c 0,-0.55 0.6607,-1.87351 1.4682,-2.94113 0.8075,-1.06762 1.4682,-1.49113 1.4682,-0.94113 0,0.55 -0.6607,1.87351 -1.4682,2.94113 -0.8075,1.06762 -1.4682,1.49113 -1.4682,0.94113 z m 6.0899,-10.42312 c 1.7771,-2.98271 3.417,-4.86547 3.6442,-4.18391 0.2271,0.68156 -0.3143,1.99696 -1.2032,2.92311 -0.8889,0.92616 -2.5288,2.80892 -3.6441,4.18392 -1.1154,1.375 -0.5739,0.0596 1.2031,-2.92312 z m 7.3969,-11.89293 c 0.9149,-1.54883 2.4693,-3.88436 3.4542,-5.19006 l 1.7907,-2.374 -0.52,2.72036 c -0.286,1.4962 -1.365,3.17256 -2.3977,3.72524 -1.0327,0.55268 -1.8776,1.66404 -1.8776,2.46969 0,0.80565 -0.4754,1.46482 -1.0565,1.46482 -0.5984,0 -0.3352,-1.22121 0.6069,-2.81605 z m 8,-12 c 0.9149,-1.54881 2.4693,-3.88441 3.4542,-5.19011 l 1.7907,-2.374 -0.52,2.7204 c -0.286,1.4962 -1.365,3.1726 -2.3977,3.7252 -1.0327,0.5527 -1.8776,1.66409 -1.8776,2.46974 0,0.80565 -0.4754,1.46482 -1.0565,1.46482 -0.5984,0 -0.3352,-1.22121 0.6069,-2.81605 z m -59.5504,983.328946 c 0,-0.2679 -2.2438,-4.6554 -4.9861,-9.75 l -4.9861,-9.2629 -0.014,8.7822 c -0.013,8.1792 0.1406,8.8443 2.2361,9.6866 2.4175,0.9718 7.75,1.3461 7.75,0.5441 z m 956.5275,-477.8751 c 1.0849,-0.7493 4.0732,-1.6713 6.6407,-2.0491 2.5676,-0.3777 5.1711,-1.2926 5.7857,-2.0331 0.6145,-0.7405 2.6696,-1.6376 4.5669,-1.9935 8.6639,-1.6254 27.3368,-17.909 30.7463,-26.8121 0.3686,-0.9625 1.0854,-1.75 1.5929,-1.75 0.5076,0 1.6277,-1.76173 2.4893,-3.91495 0.8615,-2.15322 2.0354,-4.20477 2.6086,-4.55901 0.5731,-0.35424 1.0421,-1.63668 1.0421,-2.84987 0,-1.21318 1.0095,-3.99912 2.2433,-6.19098 2.1174,-3.76174 2.2436,-5.11471 2.25,-24.13036 0.01,-17.39304 -0.2208,-20.39858 -1.6587,-22 -0.9159,-1.02016 -1.9755,-3.5263 -2.3546,-5.5692 -0.3791,-2.04291 -1.2882,-4.2115 -2.0203,-4.8191 -0.7321,-0.6076 -1.6202,-2.42095 -1.9736,-4.02967 -0.3533,-1.60872 -1.1697,-3.26513 -1.8142,-3.6809 -0.6446,-0.41578 -2.7265,-3.00596 -4.6266,-5.75596 -3.8352,-5.55077 -13.9045,-15.5 -15.687,-15.5 -0.6294,0 -1.4033,-0.675 -1.7199,-1.5 -0.3166,-0.825 -1.195,-1.5 -1.952,-1.5 -0.757,0 -2.1909,-0.9 -3.1864,-2 -0.9955,-1.1 -2.5795,-2 -3.5201,-2 -0.9406,0 -2.7834,-0.83673 -4.095,-1.8594 -1.3117,-1.02268 -4.629,-2.19123 -7.3717,-2.59679 -2.7428,-0.40556 -6.2079,-1.36883 -7.7004,-2.1406 -3.7478,-1.93808 -24.5709,-1.95898 -27.3403,-0.0274 -1.0849,0.75668 -4.3467,1.70051 -7.2485,2.09742 -2.9018,0.3969 -5.9132,1.35883 -6.6919,2.13762 -0.7788,0.77879 -2.7691,1.68661 -4.4229,2.01737 -1.6539,0.33076 -3.7747,1.44973 -4.7131,2.48661 -0.9383,1.03687 -2.289,1.88522 -3.0014,1.88522 -0.7124,0 -1.6552,0.60931 -2.095,1.35402 -0.4398,0.7447 -1.8893,1.92679 -3.221,2.62686 -3.5178,1.84928 -16.0787,15.11437 -16.0787,16.98016 0,0.52858 -0.8442,1.76608 -1.8759,2.75 -1.0318,0.98393 -2.21,2.91396 -2.6183,4.28896 -0.4083,1.375 -1.3141,3.175 -2.0128,4 -0.6987,0.825 -1.6004,3.04951 -2.0036,4.94335 -0.4033,1.89384 -1.2862,3.99627 -1.962,4.67207 -2.8735,2.87351 -3.1099,41.32037 -0.2807,45.6384 0.8201,1.25153 1.8251,3.84391 2.2335,5.76085 0.4083,1.91693 1.3141,4.16033 2.0128,4.98533 0.6987,0.825 1.6045,2.625 2.0128,4 0.4083,1.375 1.5865,3.30503 2.6183,4.28896 1.0317,0.98392 1.8759,2.22142 1.8759,2.75 0,1.81934 11.4589,13.93604 15.7747,16.68014 1.4989,0.9531 3.0852,2.3062 3.525,3.0069 0.4398,0.7007 1.3826,1.274 2.095,1.274 0.7124,0 2.0631,0.8484 3.0014,1.8852 0.9384,1.0369 3.0592,2.1559 4.7131,2.4866 1.6538,0.3308 3.6441,1.2386 4.4229,2.0174 0.7787,0.7788 3.7901,1.7407 6.6919,2.1376 2.9018,0.3969 6.1636,1.3408 7.2485,2.0974 2.7524,1.9198 24.2793,1.9305 27.055,0.014 z m -25.2977,-35.59773 -2.2702,-1.8934 2.3849,-2.57333 c 1.3116,-1.41534 2.8433,-2.57334 3.4035,-2.57334 0.5603,0 1.2541,-0.9 1.5417,-2 0.2877,-1.1 1.2402,-2 2.1167,-2 0.8765,0 1.5936,-0.64844 1.5936,-1.44098 0,-0.79254 0.3719,-1.67084 0.8265,-1.95177 1.4343,-0.8865 5.1735,0.56577 5.1735,2.00938 0,0.76085 0.7171,1.38337 1.5936,1.38337 0.8765,0 1.829,0.9 2.1167,2 0.2876,1.1 0.9814,2 1.5417,2 0.5602,0 2.0919,1.158 3.4035,2.57334 l 2.3849,2.57333 -2.2702,1.8934 c -1.8773,1.56567 -3.9145,1.89339 -11.7702,1.89339 -7.8557,0 -9.8929,-0.32772 -11.7702,-1.89339 z m 42.4446,-32.14385 c -5.3431,-5.35791 -6.6859,-7.28456 -6.1826,-8.87038 0.3536,-1.11421 1.0841,-2.02584 1.6232,-2.02584 1.3514,0 10.885,-9.64429 10.885,-11.0114 0,-0.60865 0.45,-0.82852 1,-0.4886 0.55,0.33992 1.0159,1.82898 1.0354,3.30902 0.02,1.48004 0.6786,3.81598 1.4646,5.19098 1.9259,3.36902 1.8602,10.02766 -0.1504,15.22976 -0.9077,2.34863 -1.9202,4.54941 -2.25,4.89063 -0.3298,0.34121 -3.6711,-2.45966 -7.4252,-6.22417 z m -69.7098,3.85378 c -0.02,-1.2375 -0.6786,-3.375 -1.4646,-4.75 -1.88,-3.28868 -1.8832,-11.03655 -0.01,-14.63569 0.8217,-1.57537 1.4967,-3.87681 1.5,-5.11431 0,-1.2375 0.3567,-2.25 0.7851,-2.25 1.5893,0 13.2211,12.6188 13.2211,14.34293 0,1.51248 -12.1336,14.65707 -13.5297,14.65707 -0.2587,0 -0.4862,-1.0125 -0.5057,-2.25 z m 31.5216,-44.13532 c -5.739,-5.83535 -5.9332,-6.19462 -4.25,-7.86468 2.4296,-2.41059 21.1912,-2.57817 23.8051,-0.21263 1.5739,1.42432 1.2235,2.0126 -4.7639,8 -3.5544,3.55445 -6.9834,6.40174 -7.62,6.32731 -0.6366,-0.0744 -3.8636,-2.88692 -7.1712,-6.25 z"
       id="path3568"
       inkscape:connector-curvature="0" />
  </g>
</svg>
